<svg xmlns="http://www.w3.org/2000/svg" viewBox="0 0 620 320" width="620" height="320" style="background:#111318;border-radius:8px">
<text x="310.0" y="22" text-anchor="middle" fill="#e5e7eb" font-size="13" font-weight="700">Retrieval Efficiency vs Step  —  B</text>
<text x="14" y="154.0" text-anchor="middle" fill="#9ca3af" font-size="10" transform="rotate(-90,14,154.0)">Obj / 100 steps</text>
<text x="329.0" y="314" text-anchor="middle" fill="#9ca3af" font-size="10">Step</text>
<line x1="58" x2="600" y1="268.0" y2="268.0" stroke="#374151" stroke-width="0.5"/>
<text x="52" y="271.0" text-anchor="end" fill="#6b7280" font-size="9">0</text>
<line x1="58" x2="600" y1="211.0" y2="211.0" stroke="#374151" stroke-width="0.5"/>
<text x="52" y="214.0" text-anchor="end" fill="#6b7280" font-size="9">4.6</text>
<line x1="58" x2="600" y1="154.0" y2="154.0" stroke="#374151" stroke-width="0.5"/>
<text x="52" y="157.0" text-anchor="end" fill="#6b7280" font-size="9">9.1</text>
<line x1="58" x2="600" y1="97.0" y2="97.0" stroke="#374151" stroke-width="0.5"/>
<text x="52" y="100.0" text-anchor="end" fill="#6b7280" font-size="9">13.7</text>
<line x1="58" x2="600" y1="40.0" y2="40.0" stroke="#374151" stroke-width="0.5"/>
<text x="52" y="43.0" text-anchor="end" fill="#6b7280" font-size="9">18.3</text>
<line x1="58.0" x2="58.0" y1="40" y2="268" stroke="#374151" stroke-width="0.5"/>
<text x="58.0" y="282" text-anchor="middle" fill="#6b7280" font-size="9">1</text>
<line x1="193.5" x2="193.5" y1="40" y2="268" stroke="#374151" stroke-width="0.5"/>
<text x="193.5" y="282" text-anchor="middle" fill="#6b7280" font-size="9">37</text>
<line x1="329.0" x2="329.0" y1="40" y2="268" stroke="#374151" stroke-width="0.5"/>
<text x="329.0" y="282" text-anchor="middle" fill="#6b7280" font-size="9">73</text>
<line x1="464.5" x2="464.5" y1="40" y2="268" stroke="#374151" stroke-width="0.5"/>
<text x="464.5" y="282" text-anchor="middle" fill="#6b7280" font-size="9">109</text>
<line x1="600.0" x2="600.0" y1="40" y2="268" stroke="#374151" stroke-width="0.5"/>
<text x="600.0" y="282" text-anchor="middle" fill="#6b7280" font-size="9">145</text>
<line x1="58" x2="58" y1="40" y2="268" stroke="#4b5563" stroke-width="1"/>
<line x1="58" x2="600" y1="268" y2="268" stroke="#4b5563" stroke-width="1"/>
<polyline points="58.0,268.0 61.8,268.0 65.5,268.0 69.3,268.0 73.1,268.0 76.8,268.0 80.6,268.0 84.3,268.0 88.1,268.0 91.9,268.0 95.6,268.0 99.4,268.0 103.2,268.0 106.9,268.0 110.7,101.5 114.5,111.9 118.2,121.1 122.0,129.3 125.8,136.6 129.5,143.1 133.3,149.1 137.0,154.5 140.8,159.4 144.6,164.0 148.3,168.1 152.1,172.0 155.9,175.5 159.6,178.8 163.4,181.9 167.2,184.8 170.9,187.4 174.7,190.0 178.4,192.3 182.2,157.8 186.0,161.0 189.7,164.0 193.5,166.8 197.3,169.4 201.0,172.0 204.8,174.4 208.6,176.6 212.3,178.8 216.1,180.9 219.8,182.9 223.6,184.8 227.4,132.3 231.1,135.2 234.9,137.9 238.7,140.6 242.4,143.1 246.2,145.6 250.0,147.9 253.7,150.2 257.5,152.4 261.2,154.5 265.0,156.5 268.8,158.5 272.5,160.4 276.3,162.2 280.1,164.0 283.8,165.7 287.6,167.3 291.4,168.9 295.1,170.5 298.9,172.0 302.7,173.4 306.4,174.8 310.2,176.2 313.9,177.5 317.7,178.8 321.5,180.1 325.2,181.3 329.0,182.5 332.8,183.6 336.5,184.8 340.3,185.9 344.1,186.9 347.8,188.0 351.6,189.0 355.3,190.0 359.1,190.9 362.9,176.6 366.6,177.7 370.4,178.8 374.2,179.9 377.9,180.9 381.7,181.9 385.5,154.5 389.2,155.8 393.0,157.0 396.8,158.2 400.5,159.4 404.3,160.6 408.0,148.5 411.8,149.7 415.6,150.9 419.3,152.2 423.1,153.3 426.9,154.5 430.6,155.6 434.4,156.7 438.2,157.8 441.9,158.9 445.7,147.9" fill="none" stroke="#3b82f6" stroke-width="1.5" stroke-linejoin="round"/>
<polyline points="58.0,268.0 61.8,268.0 65.5,268.0 69.3,268.0 73.1,268.0 76.8,268.0 80.6,268.0 84.3,268.0 88.1,268.0 91.9,268.0 95.6,268.0 99.4,268.0 103.2,268.0 106.9,268.0 110.7,268.0 114.5,111.9 118.2,121.1 122.0,129.3 125.8,136.6 129.5,143.1 133.3,149.1 137.0,154.5 140.8,159.4 144.6,164.0 148.3,168.1 152.1,75.9 155.9,83.0 159.6,89.6 163.4,95.8 167.2,101.5 170.9,106.9 174.7,111.9 178.4,116.7 182.2,121.1 186.0,89.6 189.7,94.6 193.5,99.3 197.3,103.7 201.0,107.9 204.8,111.9 208.6,115.7 212.3,119.4 216.1,122.8 219.8,126.1 223.6,129.3 227.4,132.3 231.1,135.2 234.9,137.9 238.7,140.6 242.4,143.1 246.2,145.6 250.0,147.9 253.7,150.2 257.5,152.4 261.2,154.5 265.0,156.5 268.8,158.5 272.5,160.4 276.3,162.2 280.1,164.0 283.8,165.7 287.6,167.3 291.4,168.9 295.1,170.5 298.9,172.0 302.7,173.4 306.4,174.8 310.2,176.2 313.9,177.5 317.7,178.8 321.5,180.1 325.2,181.3 329.0,182.5 332.8,183.6 336.5,184.8 340.3,185.9 344.1,186.9 347.8,155.9 351.6,157.4 355.3,158.8 359.1,160.1 362.9,161.4 366.6,162.7 370.4,164.0 374.2,165.2 377.9,166.4 381.7,167.5 385.5,168.7 389.2,169.8 393.0,170.9 396.8,172.0 400.5,173.0 404.3,174.0 408.0,175.0 411.8,176.0 415.6,177.0 419.3,177.9 423.1,178.8 426.9,179.7 430.6,180.6 434.4,181.5 438.2,182.3 441.9,183.1 445.7,184.0 449.4,184.8 453.2,185.5 457.0,186.3 460.7,187.1 464.5,187.8 468.3,188.5 472.0,166.8 475.8,167.7 479.6,168.6 483.3,169.4 487.1,170.3 490.8,171.1 494.6,172.0 498.4,172.8 502.1,173.6 505.9,174.4 509.7,175.1 513.4,175.9 517.2,176.6 521.0,177.4 524.7,178.1 528.5,178.8 532.2,179.5 536.0,180.2 539.8,180.9 543.5,181.6 547.3,182.2 551.1,182.9 554.8,183.5 558.6,174.8" fill="none" stroke="#10b981" stroke-width="1.5" stroke-linejoin="round"/>
<polyline points="58.0,268.0 61.8,268.0 65.5,268.0 69.3,268.0 73.1,268.0 76.8,268.0 80.6,268.0 84.3,268.0 88.1,268.0 91.9,268.0 95.6,268.0 99.4,268.0 103.2,268.0 106.9,268.0 110.7,101.5 114.5,111.9 118.2,121.1 122.0,129.3 125.8,136.6 129.5,143.1 133.3,149.1 137.0,154.5 140.8,159.4 144.6,164.0 148.3,168.1 152.1,172.0 155.9,175.5 159.6,178.8 163.4,181.9 167.2,184.8 170.9,187.4 174.7,190.0 178.4,192.3 182.2,157.8 186.0,161.0 189.7,164.0 193.5,166.8 197.3,136.6 201.0,139.9 204.8,143.1 208.6,146.2 212.3,149.1 216.1,151.9 219.8,154.5 223.6,157.0 227.4,159.4 231.1,161.7 234.9,164.0 238.7,140.6 242.4,143.1 246.2,121.1 250.0,123.9 253.7,126.7 257.5,129.3 261.2,131.8 265.0,134.2 268.8,136.6 272.5,138.8 276.3,141.0 280.1,143.1 283.8,145.2 287.6,147.2 291.4,149.1 295.1,131.4 298.9,114.3 302.7,116.7 306.4,118.9 310.2,121.1 313.9,123.2 317.7,125.3 321.5,127.3 325.2,129.3 329.0,131.2 332.8,133.0 336.5,134.8 340.3,136.6 344.1,138.3 347.8,139.9 351.6,141.6 355.3,143.1 359.1,144.7 362.9,146.2 366.6,147.7 370.4,149.1 374.2,150.5 377.9,151.9 381.7,153.2 385.5,154.5 389.2,155.8 393.0,157.0 396.8,144.5 400.5,145.9 404.3,147.2 408.0,148.5 411.8,149.7 415.6,150.9 419.3,152.2 423.1,153.3 426.9,154.5 430.6,155.6 434.4,156.7 438.2,157.8 441.9,158.9 445.7,160.0 449.4,161.0 453.2,150.2" fill="none" stroke="#f59e0b" stroke-width="1.5" stroke-linejoin="round"/>
<polyline points="58.0,268.0 61.8,268.0 65.5,268.0 69.3,268.0 73.1,268.0 76.8,268.0 80.6,268.0 84.3,268.0 88.1,268.0 91.9,268.0 95.6,268.0 99.4,268.0 103.2,268.0 106.9,268.0 110.7,268.0 114.5,268.0 118.2,121.1 122.0,129.3 125.8,136.6 129.5,143.1 133.3,149.1 137.0,154.5 140.8,50.9 144.6,59.9 148.3,68.2 152.1,75.9 155.9,83.0 159.6,89.6 163.4,95.8 167.2,101.5 170.9,106.9 174.7,111.9 178.4,116.7 182.2,84.4 186.0,89.6 189.7,94.6 193.5,99.3 197.3,103.7 201.0,107.9 204.8,111.9 208.6,115.7 212.3,119.4 216.1,122.8 219.8,126.1 223.6,129.3 227.4,132.3 231.1,135.2 234.9,137.9 238.7,140.6 242.4,143.1 246.2,145.6 250.0,147.9 253.7,150.2 257.5,152.4 261.2,154.5 265.0,156.5 268.8,158.5 272.5,160.4 276.3,162.2 280.1,164.0 283.8,165.7 287.6,167.3 291.4,129.3 295.1,131.4 298.9,133.5 302.7,135.6 306.4,137.6 310.2,139.5 313.9,141.3 317.7,143.1 321.5,144.9 325.2,146.6 329.0,148.3 332.8,149.9 336.5,151.5 340.3,153.0 344.1,154.5 347.8,155.9 351.6,157.4 355.3,158.8 359.1,160.1 362.9,161.4 366.6,162.7 370.4,164.0 374.2,165.2 377.9,166.4 381.7,167.5 385.5,168.7 389.2,169.8 393.0,170.9 396.8,172.0 400.5,173.0 404.3,174.0 408.0,175.0 411.8,176.0 415.6,177.0 419.3,177.9 423.1,178.8 426.9,179.7 430.6,180.6 434.4,181.5 438.2,182.3 441.9,183.1 445.7,184.0 449.4,184.8 453.2,185.5 457.0,186.3 460.7,187.1 464.5,187.8 468.3,188.5 472.0,189.3 475.8,190.0 479.6,190.7 483.3,191.3 487.1,192.0 490.8,192.7 494.6,193.3 498.4,193.9 502.1,194.6 505.9,195.2 509.7,195.8 513.4,196.4 517.2,196.9 521.0,187.4 524.7,188.1 528.5,188.7 532.2,189.3 536.0,190.0 539.8,190.6 543.5,191.2 547.3,191.8 551.1,192.3 554.8,192.9 558.6,193.5 562.4,194.0 566.1,194.6 569.9,195.1 573.7,195.6 577.4,196.1 581.2,187.7 584.9,188.3 588.7,188.9 592.5,189.4 596.2,190.0 600.0,181.9" fill="none" stroke="#ef4444" stroke-width="1.5" stroke-linejoin="round"/>
<polyline points="58.0,268.0 61.8,268.0 65.5,268.0 69.3,268.0 73.1,268.0 76.8,268.0 80.6,268.0 84.3,268.0 88.1,268.0 91.9,268.0 95.6,268.0 99.4,268.0 103.2,268.0 106.9,268.0 110.7,101.5 114.5,111.9 118.2,121.1 122.0,129.3 125.8,136.6 129.5,143.1 133.3,149.1 137.0,154.5 140.8,159.4 144.6,164.0 148.3,168.1 152.1,172.0 155.9,175.5 159.6,178.8 163.4,181.9 167.2,184.8 170.9,187.4 174.7,190.0 178.4,192.3 182.2,157.8 186.0,161.0 189.7,164.0 193.5,166.8 197.3,169.4 201.0,172.0 204.8,174.4 208.6,176.6 212.3,178.8 216.1,180.9 219.8,182.9 223.6,184.8 227.4,132.3 231.1,135.2 234.9,137.9 238.7,140.6 242.4,143.1 246.2,145.6 250.0,147.9 253.7,150.2 257.5,152.4 261.2,154.5 265.0,156.5 268.8,158.5 272.5,160.4 276.3,162.2 280.1,164.0 283.8,165.7 287.6,167.3 291.4,168.9 295.1,170.5 298.9,172.0 302.7,173.4 306.4,174.8 310.2,176.2 313.9,159.4 317.7,161.0 321.5,162.5 325.2,164.0 329.0,165.4 332.8,166.8 336.5,168.1 340.3,169.4 344.1,170.7 347.8,172.0 351.6,173.2 355.3,174.4 359.1,175.5 362.9,176.6 366.6,177.7 370.4,178.8 374.2,179.9 377.9,166.4 381.7,167.5 385.5,168.7 389.2,169.8 393.0,170.9 396.8,172.0 400.5,173.0 404.3,174.0 408.0,175.0 411.8,176.0 415.6,177.0 419.3,177.9 423.1,178.8 426.9,179.7 430.6,180.6 434.4,181.5 438.2,182.3 441.9,183.1 445.7,184.0 449.4,184.8 453.2,185.5 457.0,186.3 460.7,187.1 464.5,187.8 468.3,188.5 472.0,189.3 475.8,190.0 479.6,168.6 483.3,169.4 487.1,170.3 490.8,171.1 494.6,172.0 498.4,172.8 502.1,173.6 505.9,174.4 509.7,175.1 513.4,175.9 517.2,176.6 521.0,177.4 524.7,168.1" fill="none" stroke="#8b5cf6" stroke-width="1.5" stroke-linejoin="round"/>
<polyline points="58.0,268.0 61.8,268.0 65.5,268.0 69.3,268.0 73.1,268.0 76.8,268.0 80.6,268.0 84.3,268.0 88.1,268.0 91.9,268.0 95.6,268.0 99.4,268.0 103.2,268.0 106.9,268.0 110.7,268.0 114.5,111.9 118.2,121.1 122.0,129.3 125.8,136.6 129.5,143.1 133.3,149.1 137.0,154.5 140.8,159.4 144.6,164.0 148.3,168.1 152.1,75.9 155.9,83.0 159.6,89.6 163.4,95.8 167.2,101.5 170.9,106.9 174.7,111.9 178.4,116.7 182.2,121.1 186.0,89.6 189.7,94.6 193.5,99.3 197.3,103.7 201.0,107.9 204.8,111.9 208.6,115.7 212.3,119.4 216.1,122.8 219.8,126.1 223.6,129.3 227.4,132.3 231.1,135.2 234.9,137.9 238.7,140.6 242.4,143.1 246.2,145.6 250.0,147.9 253.7,150.2 257.5,152.4 261.2,154.5 265.0,156.5 268.8,158.5 272.5,160.4 276.3,162.2 280.1,164.0 283.8,165.7 287.6,167.3 291.4,168.9 295.1,170.5 298.9,172.0 302.7,173.4 306.4,174.8 310.2,176.2 313.9,177.5 317.7,178.8 321.5,180.1 325.2,181.3 329.0,182.5 332.8,183.6 336.5,184.8 340.3,185.9 344.1,186.9 347.8,155.9 351.6,157.4 355.3,158.8 359.1,160.1 362.9,161.4 366.6,162.7 370.4,164.0 374.2,165.2 377.9,166.4 381.7,167.5 385.5,168.7 389.2,169.8 393.0,170.9 396.8,172.0 400.5,173.0 404.3,174.0 408.0,175.0 411.8,176.0 415.6,177.0 419.3,177.9 423.1,178.8 426.9,179.7 430.6,180.6 434.4,181.5 438.2,182.3 441.9,183.1 445.7,184.0 449.4,184.8 453.2,185.5 457.0,186.3 460.7,187.1 464.5,187.8 468.3,188.5 472.0,166.8 475.8,167.7 479.6,168.6 483.3,169.4 487.1,170.3 490.8,171.1 494.6,172.0 498.4,172.8 502.1,173.6 505.9,174.4 509.7,175.1 513.4,175.9 517.2,176.6 521.0,177.4 524.7,178.1 528.5,178.8 532.2,179.5 536.0,180.2 539.8,180.9 543.5,181.6 547.3,172.7" fill="none" stroke="#ec4899" stroke-width="1.5" stroke-linejoin="round"/>
<line x1="66" x2="82" y1="50" y2="50" stroke="#3b82f6" stroke-width="2"/>
<text x="86" y="53" fill="#d1d5db" font-size="9">1S/1C/3R unknown</text>
<line x1="66" x2="82" y1="64" y2="64" stroke="#10b981" stroke-width="2"/>
<text x="86" y="67" fill="#d1d5db" font-size="9">1S/1C/3R map_known</text>
<line x1="66" x2="82" y1="78" y2="78" stroke="#f59e0b" stroke-width="2"/>
<text x="86" y="81" fill="#d1d5db" font-size="9">0S/0C/5R unknown</text>
<line x1="66" x2="82" y1="92" y2="92" stroke="#ef4444" stroke-width="2"/>
<text x="86" y="95" fill="#d1d5db" font-size="9">0S/0C/5R map_known</text>
<line x1="66" x2="82" y1="106" y2="106" stroke="#8b5cf6" stroke-width="2"/>
<text x="86" y="109" fill="#d1d5db" font-size="9">1S/1C/3R unknown  no-seek</text>
<line x1="66" x2="82" y1="120" y2="120" stroke="#ec4899" stroke-width="2"/>
<text x="86" y="123" fill="#d1d5db" font-size="9">1S/1C/3R map_known no-seek</text>
</svg>