<svg xmlns="http://www.w3.org/2000/svg" viewBox="0 0 620 320" width="620" height="320" style="background:#111318;border-radius:8px">
<text x="310.0" y="22" text-anchor="middle" fill="#e5e7eb" font-size="13" font-weight="700">Average Agent Energy vs Step  —  B</text>
<text x="14" y="154.0" text-anchor="middle" fill="#9ca3af" font-size="10" transform="rotate(-90,14,154.0)">Avg Energy</text>
<text x="329.0" y="314" text-anchor="middle" fill="#9ca3af" font-size="10">Step</text>
<line x1="58" x2="600" y1="268.0" y2="268.0" stroke="#374151" stroke-width="0.5"/>
<text x="52" y="271.0" text-anchor="end" fill="#6b7280" font-size="9">362.2</text>
<line x1="58" x2="600" y1="211.0" y2="211.0" stroke="#374151" stroke-width="0.5"/>
<text x="52" y="214.0" text-anchor="end" fill="#6b7280" font-size="9">398.1</text>
<line x1="58" x2="600" y1="154.0" y2="154.0" stroke="#374151" stroke-width="0.5"/>
<text x="52" y="157.0" text-anchor="end" fill="#6b7280" font-size="9">434.1</text>
<line x1="58" x2="600" y1="97.0" y2="97.0" stroke="#374151" stroke-width="0.5"/>
<text x="52" y="100.0" text-anchor="end" fill="#6b7280" font-size="9">470.0</text>
<line x1="58" x2="600" y1="40.0" y2="40.0" stroke="#374151" stroke-width="0.5"/>
<text x="52" y="43.0" text-anchor="end" fill="#6b7280" font-size="9">505.9</text>
<line x1="58.0" x2="58.0" y1="40" y2="268" stroke="#374151" stroke-width="0.5"/>
<text x="58.0" y="282" text-anchor="middle" fill="#6b7280" font-size="9">1</text>
<line x1="193.5" x2="193.5" y1="40" y2="268" stroke="#374151" stroke-width="0.5"/>
<text x="193.5" y="282" text-anchor="middle" fill="#6b7280" font-size="9">37</text>
<line x1="329.0" x2="329.0" y1="40" y2="268" stroke="#374151" stroke-width="0.5"/>
<text x="329.0" y="282" text-anchor="middle" fill="#6b7280" font-size="9">73</text>
<line x1="464.5" x2="464.5" y1="40" y2="268" stroke="#374151" stroke-width="0.5"/>
<text x="464.5" y="282" text-anchor="middle" fill="#6b7280" font-size="9">109</text>
<line x1="600.0" x2="600.0" y1="40" y2="268" stroke="#374151" stroke-width="0.5"/>
<text x="600.0" y="282" text-anchor="middle" fill="#6b7280" font-size="9">145</text>
<line x1="58" x2="58" y1="40" y2="268" stroke="#4b5563" stroke-width="1"/>
<line x1="58" x2="600" y1="268" y2="268" stroke="#4b5563" stroke-width="1"/>
<polyline points="58.0,50.4 61.8,51.9 65.5,53.2 69.3,55.1 73.1,56.7 76.8,58.3 80.6,60.2 84.3,61.5 88.1,63.1 91.9,65.3 95.6,67.1 99.4,69.0 103.2,70.9 106.9,72.8 110.7,74.5 114.5,76.3 118.2,78.1 122.0,79.5 125.8,81.3 129.5,83.1 133.3,84.9 137.0,86.7 140.8,88.1 144.6,89.6 148.3,90.7 152.1,92.2 155.9,93.6 159.6,95.0 163.4,96.4 167.2,97.8 170.9,99.2 174.7,100.6 178.4,102.0 182.2,103.3 186.0,104.8 189.7,106.2 193.5,107.3 197.3,108.5 201.0,110.2 204.8,111.6 208.6,113.0 212.3,114.4 216.1,115.9 219.8,117.4 223.6,118.8 227.4,120.2 231.1,121.5 234.9,122.8 238.7,124.1 242.4,125.5 246.2,126.8 250.0,128.1 253.7,129.5 257.5,130.8 261.2,132.1 265.0,133.7 268.8,135.2 272.5,136.7 276.3,138.2 280.1,139.8 283.8,141.4 287.6,143.0 291.4,143.9 295.1,145.8 298.9,147.4 302.7,149.0 306.4,150.5 310.2,151.8 313.9,153.1 317.7,154.3 321.5,155.6 325.2,157.3 329.0,158.9 332.8,160.6 336.5,162.3 340.3,164.1 344.1,165.8 347.8,167.6 351.6,169.4 355.3,171.7 359.1,173.4 362.9,175.2 366.6,176.9 370.4,178.6 374.2,180.0 377.9,181.7 381.7,183.4 385.5,185.0 389.2,186.6 393.0,188.5 396.8,190.1 400.5,191.7 404.3,193.2 408.0,194.8 411.8,196.3 415.6,197.2 419.3,198.8 423.1,200.3 426.9,201.9 430.6,203.5 434.4,205.4 438.2,206.9 441.9,208.5 445.7,210.1" fill="none" stroke="#3b82f6" stroke-width="1.5" stroke-linejoin="round"/>
<polyline points="58.0,50.7 61.8,52.3 65.5,54.8 69.3,56.4 73.1,57.7 76.8,59.2 80.6,60.8 84.3,62.4 88.1,64.0 91.9,65.6 95.6,67.5 99.4,69.3 103.2,71.2 106.9,73.0 110.7,74.9 114.5,76.6 118.2,78.6 122.0,80.3 125.8,82.0 129.5,83.7 133.3,85.2 137.0,86.6 140.8,88.0 144.6,89.5 148.3,90.9 152.1,92.2 155.9,93.1 159.6,94.4 163.4,95.7 167.2,96.9 170.9,98.5 174.7,100.1 178.4,101.9 182.2,103.7 186.0,105.2 189.7,106.7 193.5,108.2 197.3,109.7 201.0,111.3 204.8,112.8 208.6,114.3 212.3,115.8 216.1,117.4 219.8,118.9 223.6,120.1 227.4,121.8 231.1,123.3 234.9,124.8 238.7,126.6 242.4,128.0 246.2,129.2 250.0,130.4 253.7,131.6 257.5,132.8 261.2,134.0 265.0,135.5 268.8,137.0 272.5,138.6 276.3,140.1 280.1,141.6 283.8,143.1 287.6,144.6 291.4,146.2 295.1,147.8 298.9,149.4 302.7,151.0 306.4,152.6 310.2,154.2 313.9,155.7 317.7,157.3 321.5,159.2 325.2,160.8 329.0,162.5 332.8,164.1 336.5,165.8 340.3,167.4 344.1,169.1 347.8,170.6 351.6,172.1 355.3,173.6 359.1,174.8 362.9,176.0 366.6,177.6 370.4,179.1 374.2,180.6 377.9,182.1 381.7,183.7 385.5,185.2 389.2,186.7 393.0,188.2 396.8,189.8 400.5,191.3 404.3,193.1 408.0,194.6 411.8,196.2 415.6,197.7 419.3,199.2 423.1,200.7 426.9,202.3 430.6,203.9 434.4,205.5 438.2,207.1 441.9,208.7 445.7,210.4 449.4,212.0 453.2,213.7 457.0,215.3 460.7,217.0 464.5,218.6 468.3,220.3 472.0,221.8 475.8,223.3 479.6,224.8 483.3,226.4 487.1,227.9 490.8,229.4 494.6,230.9 498.4,232.8 502.1,234.3 505.9,235.8 509.7,237.3 513.4,238.9 517.2,240.4 521.0,241.9 524.7,243.4 528.5,245.0 532.2,246.6 536.0,248.2 539.8,249.8 543.5,251.4 547.3,252.9 551.1,254.5 554.8,256.1 558.6,257.6" fill="none" stroke="#10b981" stroke-width="1.5" stroke-linejoin="round"/>
<polyline points="58.0,50.7 61.8,51.3 65.5,52.3 69.3,54.2 73.1,55.4 76.8,57.0 80.6,58.6 84.3,60.2 88.1,61.8 91.9,63.4 95.6,64.9 99.4,66.4 103.2,68.0 106.9,69.6 110.7,71.0 114.5,72.5 118.2,74.0 122.0,75.4 125.8,76.9 129.5,78.3 133.3,79.8 137.0,81.3 140.8,82.7 144.6,84.2 148.3,85.6 152.1,87.1 155.9,88.5 159.6,89.9 163.4,91.3 167.2,92.6 170.9,93.9 174.7,95.0 178.4,96.3 182.2,97.6 186.0,98.8 189.7,100.3 193.5,101.5 197.3,102.6 201.0,103.8 204.8,104.7 208.6,105.7 212.3,106.8 216.1,108.0 219.8,109.4 223.6,110.6 227.4,111.8 231.1,113.0 234.9,114.2 238.7,115.3 242.4,116.3 246.2,117.6 250.0,118.6 253.7,119.6 257.5,120.7 261.2,121.7 265.0,122.7 268.8,123.7 272.5,124.7 276.3,125.7 280.1,126.8 283.8,127.8 287.6,128.8 291.4,129.9 295.1,130.9 298.9,131.9 302.7,132.8 306.4,133.8 310.2,134.7 313.9,135.7 317.7,136.6 321.5,137.6 325.2,138.6 329.0,139.5 332.8,140.5 336.5,141.4 340.3,142.4 344.1,143.3 347.8,144.3 351.6,145.2 355.3,146.2 359.1,147.1 362.9,148.1 366.6,149.0 370.4,150.0 374.2,151.0 377.9,152.1 381.7,153.1 385.5,154.1 389.2,155.1 393.0,156.1 396.8,157.1 400.5,158.1 404.3,159.3 408.0,160.3 411.8,161.3 415.6,162.2 419.3,163.2 423.1,164.2 426.9,165.4 430.6,166.4 434.4,167.4 438.2,168.4 441.9,169.4 445.7,170.5 449.4,171.5 453.2,172.2" fill="none" stroke="#f59e0b" stroke-width="1.5" stroke-linejoin="round"/>
<polyline points="58.0,50.7 61.8,51.0 65.5,52.3 69.3,53.5 73.1,54.8 76.8,56.4 80.6,57.7 84.3,58.9 88.1,60.5 91.9,62.1 95.6,63.7 99.4,65.3 103.2,66.7 106.9,68.2 110.7,69.7 114.5,71.0 118.2,72.4 122.0,73.8 125.8,75.2 129.5,76.6 133.3,78.1 137.0,79.5 140.8,80.8 144.6,82.0 148.3,83.3 152.1,84.6 155.9,85.8 159.6,86.9 163.4,88.0 167.2,89.3 170.9,90.5 174.7,91.8 178.4,93.1 182.2,94.3 186.0,95.5 189.7,96.7 193.5,97.9 197.3,99.1 201.0,100.3 204.8,101.7 208.6,102.9 212.3,104.1 216.1,105.3 219.8,106.5 223.6,107.7 227.4,108.9 231.1,110.1 234.9,111.5 238.7,112.8 242.4,114.1 246.2,115.3 250.0,116.6 253.7,117.7 257.5,118.5 261.2,119.8 265.0,121.0 268.8,122.3 272.5,123.5 276.3,124.6 280.1,125.9 283.8,127.3 287.6,128.6 291.4,130.1 295.1,131.3 298.9,132.7 302.7,133.9 306.4,135.1 310.2,136.3 313.9,137.5 317.7,138.7 321.5,139.9 325.2,141.0 329.0,142.0 332.8,143.2 336.5,144.4 340.3,145.6 344.1,146.8 347.8,148.0 351.6,149.2 355.3,150.4 359.1,151.6 362.9,152.8 366.6,154.0 370.4,155.2 374.2,156.4 377.9,157.6 381.7,158.9 385.5,160.1 389.2,161.3 393.0,162.5 396.8,163.7 400.5,164.9 404.3,166.1 408.0,167.3 411.8,168.5 415.6,169.7 419.3,170.9 423.1,172.1 426.9,173.3 430.6,174.8 434.4,176.0 438.2,177.1 441.9,178.1 445.7,179.3 449.4,180.2 453.2,181.1 457.0,182.3 460.7,183.5 464.5,184.5 468.3,185.5 472.0,186.7 475.8,187.9 479.6,189.1 483.3,190.3 487.1,191.5 490.8,192.7 494.6,193.9 498.4,195.1 502.1,196.3 505.9,197.6 509.7,198.9 513.4,200.2 517.2,201.4 521.0,202.6 524.7,203.8 528.5,205.0 532.2,206.2 536.0,207.5 539.8,208.7 543.5,209.9 547.3,211.1 551.1,212.3 554.8,213.6 558.6,214.7 562.4,216.0 566.1,217.2 569.9,218.6 573.7,219.9 577.4,221.2 581.2,222.5 584.9,223.8 588.7,225.0 592.5,226.3 596.2,227.6 600.0,228.8" fill="none" stroke="#ef4444" stroke-width="1.5" stroke-linejoin="round"/>
<polyline points="58.0,50.4 61.8,51.9 65.5,53.2 69.3,55.1 73.1,56.7 76.8,58.3 80.6,60.2 84.3,61.5 88.1,63.1 91.9,65.3 95.6,67.1 99.4,69.0 103.2,70.9 106.9,72.8 110.7,74.5 114.5,76.3 118.2,78.1 122.0,79.5 125.8,81.3 129.5,83.1 133.3,84.9 137.0,86.7 140.8,88.1 144.6,89.6 148.3,90.7 152.1,92.2 155.9,93.6 159.6,95.0 163.4,96.4 167.2,97.8 170.9,99.2 174.7,100.6 178.4,102.0 182.2,103.3 186.0,104.8 189.7,106.2 193.5,107.3 197.3,108.5 201.0,110.2 204.8,111.6 208.6,113.0 212.3,114.4 216.1,115.9 219.8,117.4 223.6,118.8 227.4,120.2 231.1,121.5 234.9,122.8 238.7,124.1 242.4,125.5 246.2,126.8 250.0,128.1 253.7,129.5 257.5,130.8 261.2,132.1 265.0,133.7 268.8,135.2 272.5,136.7 276.3,138.2 280.1,139.8 283.8,141.3 287.6,142.6 291.4,144.1 295.1,145.7 298.9,147.2 302.7,148.8 306.4,150.4 310.2,152.0 313.9,153.5 317.7,155.0 321.5,156.6 325.2,158.1 329.0,159.6 332.8,161.1 336.5,162.7 340.3,164.2 344.1,165.7 347.8,167.3 351.6,168.6 355.3,170.1 359.1,171.7 362.9,173.3 366.6,174.9 370.4,176.5 374.2,178.1 377.9,179.6 381.7,181.1 385.5,182.6 389.2,184.2 393.0,185.7 396.8,187.2 400.5,188.7 404.3,190.3 408.0,191.8 411.8,193.3 415.6,194.8 419.3,196.3 423.1,197.9 426.9,199.4 430.6,201.0 434.4,202.2 438.2,203.5 441.9,204.8 445.7,206.4 449.4,208.0 453.2,209.5 457.0,211.1 460.7,212.8 464.5,214.4 468.3,216.1 472.0,217.7 475.8,219.7 479.6,221.3 483.3,222.9 487.1,224.5 490.8,226.0 494.6,227.6 498.4,229.2 502.1,230.8 505.9,232.4 509.7,234.0 513.4,235.6 517.2,237.1 521.0,238.7 524.7,240.3" fill="none" stroke="#8b5cf6" stroke-width="1.5" stroke-linejoin="round"/>
<polyline points="58.0,50.7 61.8,52.3 65.5,54.8 69.3,56.4 73.1,57.7 76.8,59.2 80.6,60.8 84.3,62.4 88.1,64.0 91.9,65.6 95.6,67.5 99.4,69.3 103.2,71.2 106.9,73.0 110.7,74.9 114.5,76.6 118.2,78.6 122.0,80.3 125.8,82.0 129.5,83.7 133.3,85.2 137.0,86.6 140.8,88.0 144.6,89.5 148.3,90.9 152.1,92.2 155.9,93.1 159.6,94.4 163.4,95.7 167.2,96.9 170.9,98.5 174.7,100.1 178.4,101.9 182.2,103.7 186.0,105.2 189.7,106.7 193.5,108.2 197.3,109.7 201.0,111.3 204.8,112.8 208.6,114.3 212.3,115.8 216.1,117.4 219.8,118.9 223.6,120.1 227.4,121.8 231.1,123.3 234.9,124.8 238.7,126.6 242.4,128.0 246.2,129.2 250.0,130.4 253.7,131.6 257.5,132.8 261.2,134.0 265.0,135.5 268.8,137.0 272.5,138.6 276.3,140.1 280.1,141.6 283.8,143.1 287.6,144.6 291.4,146.2 295.1,147.8 298.9,149.4 302.7,151.0 306.4,152.6 310.2,154.2 313.9,155.7 317.7,157.3 321.5,159.2 325.2,160.8 329.0,162.5 332.8,164.1 336.5,165.8 340.3,167.4 344.1,169.1 347.8,170.6 351.6,172.1 355.3,173.6 359.1,175.2 362.9,176.7 366.6,178.2 370.4,179.7 374.2,181.2 377.9,182.8 381.7,184.3 385.5,185.8 389.2,187.3 393.0,188.9 396.8,190.4 400.5,191.9 404.3,193.4 408.0,195.0 411.8,196.5 415.6,198.0 419.3,199.5 423.1,201.0 426.9,202.6 430.6,204.2 434.4,206.0 438.2,207.6 441.9,209.2 445.7,210.9 449.4,212.5 453.2,214.2 457.0,215.8 460.7,217.5 464.5,219.1 468.3,220.8 472.0,222.3 475.8,223.8 479.6,225.3 483.3,226.9 487.1,228.4 490.8,229.9 494.6,231.4 498.4,233.0 502.1,234.5 505.9,236.0 509.7,237.5 513.4,239.0 517.2,240.6 521.0,242.2 524.7,243.8 528.5,245.4 532.2,247.0 536.0,248.6 539.8,250.1 543.5,251.7 547.3,253.3" fill="none" stroke="#ec4899" stroke-width="1.5" stroke-linejoin="round"/>
<line x1="66" x2="82" y1="50" y2="50" stroke="#3b82f6" stroke-width="2"/>
<text x="86" y="53" fill="#d1d5db" font-size="9">1S/1C/3R unknown</text>
<line x1="66" x2="82" y1="64" y2="64" stroke="#10b981" stroke-width="2"/>
<text x="86" y="67" fill="#d1d5db" font-size="9">1S/1C/3R map_known</text>
<line x1="66" x2="82" y1="78" y2="78" stroke="#f59e0b" stroke-width="2"/>
<text x="86" y="81" fill="#d1d5db" font-size="9">0S/0C/5R unknown</text>
<line x1="66" x2="82" y1="92" y2="92" stroke="#ef4444" stroke-width="2"/>
<text x="86" y="95" fill="#d1d5db" font-size="9">0S/0C/5R map_known</text>
<line x1="66" x2="82" y1="106" y2="106" stroke="#8b5cf6" stroke-width="2"/>
<text x="86" y="109" fill="#d1d5db" font-size="9">1S/1C/3R unknown  no-seek</text>
<line x1="66" x2="82" y1="120" y2="120" stroke="#ec4899" stroke-width="2"/>
<text x="86" y="123" fill="#d1d5db" font-size="9">1S/1C/3R map_known no-seek</text>
</svg>