<svg xmlns="http://www.w3.org/2000/svg" viewBox="0 0 620 320" width="620" height="320" style="background:#111318;border-radius:8px">
<text x="310.0" y="22" text-anchor="middle" fill="#e5e7eb" font-size="13" font-weight="700">Messages Sent vs Step  —  B</text>
<text x="14" y="154.0" text-anchor="middle" fill="#9ca3af" font-size="10" transform="rotate(-90,14,154.0)">Messages</text>
<text x="329.0" y="314" text-anchor="middle" fill="#9ca3af" font-size="10">Step</text>
<line x1="58" x2="600" y1="268.0" y2="268.0" stroke="#374151" stroke-width="0.5"/>
<text x="52" y="271.0" text-anchor="end" fill="#6b7280" font-size="9">0</text>
<line x1="58" x2="600" y1="211.0" y2="211.0" stroke="#374151" stroke-width="0.5"/>
<text x="52" y="214.0" text-anchor="end" fill="#6b7280" font-size="9">119.7</text>
<line x1="58" x2="600" y1="154.0" y2="154.0" stroke="#374151" stroke-width="0.5"/>
<text x="52" y="157.0" text-anchor="end" fill="#6b7280" font-size="9">239.4</text>
<line x1="58" x2="600" y1="97.0" y2="97.0" stroke="#374151" stroke-width="0.5"/>
<text x="52" y="100.0" text-anchor="end" fill="#6b7280" font-size="9">359.1</text>
<line x1="58" x2="600" y1="40.0" y2="40.0" stroke="#374151" stroke-width="0.5"/>
<text x="52" y="43.0" text-anchor="end" fill="#6b7280" font-size="9">478.9</text>
<line x1="58.0" x2="58.0" y1="40" y2="268" stroke="#374151" stroke-width="0.5"/>
<text x="58.0" y="282" text-anchor="middle" fill="#6b7280" font-size="9">1</text>
<line x1="193.5" x2="193.5" y1="40" y2="268" stroke="#374151" stroke-width="0.5"/>
<text x="193.5" y="282" text-anchor="middle" fill="#6b7280" font-size="9">37</text>
<line x1="329.0" x2="329.0" y1="40" y2="268" stroke="#374151" stroke-width="0.5"/>
<text x="329.0" y="282" text-anchor="middle" fill="#6b7280" font-size="9">73</text>
<line x1="464.5" x2="464.5" y1="40" y2="268" stroke="#374151" stroke-width="0.5"/>
<text x="464.5" y="282" text-anchor="middle" fill="#6b7280" font-size="9">109</text>
<line x1="600.0" x2="600.0" y1="40" y2="268" stroke="#374151" stroke-width="0.5"/>
<text x="600.0" y="282" text-anchor="middle" fill="#6b7280" font-size="9">145</text>
<line x1="58" x2="58" y1="40" y2="268" stroke="#4b5563" stroke-width="1"/>
<line x1="58" x2="600" y1="268" y2="268" stroke="#4b5563" stroke-width="1"/>
<polyline points="58.0,258.0 61.8,249.0 65.5,240.9 69.3,233.2 73.1,229.9 76.8,227.5 80.6,225.1 84.3,221.8 88.1,217.5 91.9,213.2 95.6,210.4 99.4,209.4 103.2,208.5 106.9,208.5 110.7,208.5 114.5,208.5 118.2,208.0 122.0,205.6 125.8,205.1 129.5,205.1 133.3,205.1 137.0,202.8 140.8,201.3 144.6,199.0 148.3,197.5 152.1,197.1 155.9,197.1 159.6,197.1 163.4,197.1 167.2,197.1 170.9,197.1 174.7,197.1 178.4,197.1 182.2,197.1 186.0,197.1 189.7,197.1 193.5,196.1 197.3,194.7 201.0,191.8 204.8,189.0 208.6,187.5 212.3,185.6 216.1,184.2 219.8,182.8 223.6,181.3 227.4,181.3 231.1,181.3 234.9,181.3 238.7,181.3 242.4,181.3 246.2,181.3 250.0,181.3 253.7,181.3 257.5,180.4 261.2,180.4 265.0,180.4 268.8,180.4 272.5,179.4 276.3,179.4 280.1,179.4 283.8,179.4 287.6,179.4 291.4,178.5 295.1,176.6 298.9,174.7 302.7,174.7 306.4,174.2 310.2,174.2 313.9,173.2 317.7,172.3 321.5,171.3 325.2,170.4 329.0,169.4 332.8,169.4 336.5,169.4 340.3,168.5 344.1,167.5 347.8,167.5 351.6,167.5 355.3,165.6 359.1,164.7 362.9,164.7 366.6,164.7 370.4,164.2 374.2,164.2 377.9,164.2 381.7,163.7 385.5,163.7 389.2,163.2 393.0,161.8 396.8,160.4 400.5,159.0 404.3,159.0 408.0,159.0 411.8,159.0 415.6,158.0 419.3,157.1 423.1,156.1 426.9,156.1 430.6,156.1 434.4,155.2 438.2,153.3 441.9,152.3 445.7,152.3" fill="none" stroke="#3b82f6" stroke-width="1.5" stroke-linejoin="round"/>
<polyline points="58.0,258.0 61.8,247.5 65.5,240.9 69.3,233.7 73.1,230.4 76.8,228.0 80.6,225.6 84.3,223.2 88.1,220.9 91.9,218.5 95.6,216.1 99.4,212.8 103.2,211.3 106.9,209.4 110.7,209.0 114.5,209.0 118.2,208.5 122.0,208.5 125.8,207.5 129.5,207.5 133.3,207.5 137.0,207.5 140.8,207.5 144.6,207.1 148.3,206.1 152.1,204.7 155.9,203.2 159.6,202.3 163.4,200.4 167.2,199.9 170.9,199.4 174.7,199.4 178.4,199.0 182.2,196.6 186.0,195.2 189.7,194.7 193.5,194.7 197.3,194.7 201.0,194.7 204.8,194.7 208.6,194.2 212.3,192.8 216.1,191.3 219.8,191.3 223.6,189.4 227.4,187.5 231.1,186.6 234.9,186.6 238.7,185.2 242.4,182.3 246.2,179.9 250.0,179.4 253.7,179.0 257.5,179.0 261.2,178.5 265.0,177.1 268.8,177.1 272.5,177.1 276.3,177.1 280.1,177.1 283.8,177.1 287.6,177.1 291.4,177.1 295.1,177.1 298.9,177.1 302.7,177.1 306.4,177.1 310.2,177.1 313.9,176.6 317.7,175.2 321.5,172.3 325.2,169.4 329.0,168.0 332.8,166.6 336.5,166.6 340.3,166.6 344.1,165.6 347.8,165.6 351.6,165.6 355.3,164.7 359.1,163.7 362.9,162.8 366.6,161.8 370.4,160.9 374.2,160.9 377.9,160.9 381.7,160.9 385.5,160.9 389.2,160.9 393.0,160.9 396.8,160.9 400.5,160.9 404.3,159.9 408.0,159.4 411.8,159.4 415.6,159.4 419.3,159.4 423.1,159.4 426.9,159.4 430.6,159.4 434.4,159.4 438.2,159.4 441.9,159.4 445.7,159.4 449.4,159.4 453.2,159.4 457.0,159.0 460.7,159.0 464.5,159.0 468.3,159.0 472.0,159.0 475.8,159.0 479.6,158.5 483.3,158.5 487.1,158.5 490.8,158.5 494.6,158.5 498.4,157.5 502.1,156.6 505.9,156.6 509.7,156.6 513.4,156.6 517.2,156.6 521.0,156.6 524.7,156.6 528.5,156.6 532.2,156.6 536.0,156.6 539.8,156.6 543.5,156.6 547.3,156.6 551.1,156.6 554.8,156.6 558.6,156.6" fill="none" stroke="#10b981" stroke-width="1.5" stroke-linejoin="round"/>
<polyline points="58.0,258.5 61.8,249.0 65.5,240.4 69.3,232.3 73.1,225.6 76.8,220.9 80.6,217.1 84.3,214.2 88.1,211.8 91.9,209.9 95.6,208.0 99.4,206.1 103.2,204.2 106.9,199.4 110.7,195.6 114.5,191.8 118.2,189.0 122.0,186.1 125.8,182.3 129.5,179.4 133.3,177.5 137.0,176.6 140.8,175.6 144.6,174.2 148.3,174.2 152.1,174.2 155.9,174.2 159.6,174.2 163.4,174.2 167.2,174.2 170.9,173.2 174.7,171.3 178.4,171.3 182.2,171.3 186.0,171.3 189.7,169.9 193.5,169.0 197.3,168.0 201.0,168.0 204.8,167.1 208.6,166.1 212.3,164.2 216.1,162.3 219.8,161.3 223.6,160.4 227.4,159.4 231.1,158.5 234.9,157.5 238.7,156.6 242.4,154.7 246.2,152.8 250.0,150.9 253.7,148.0 257.5,147.1 261.2,147.1 265.0,147.1 268.8,147.1 272.5,147.1 276.3,147.1 280.1,147.1 283.8,147.1 287.6,147.1 291.4,146.1 295.1,145.2 298.9,145.2 302.7,144.2 306.4,142.3 310.2,140.4 313.9,138.5 317.7,136.6 321.5,135.6 325.2,133.7 329.0,131.8 332.8,129.9 336.5,128.0 340.3,126.1 344.1,124.2 347.8,122.3 351.6,120.4 355.3,119.4 359.1,118.5 362.9,118.5 366.6,118.5 370.4,118.5 374.2,118.5 377.9,118.5 381.7,118.5 385.5,118.5 389.2,118.5 393.0,117.5 396.8,115.6 400.5,114.7 404.3,113.7 408.0,111.8 411.8,110.9 415.6,109.9 419.3,109.0 423.1,108.0 426.9,107.1 430.6,106.1 434.4,105.2 438.2,105.2 441.9,104.2 445.7,103.3 449.4,102.3 453.2,100.4" fill="none" stroke="#f59e0b" stroke-width="1.5" stroke-linejoin="round"/>
<polyline points="58.0,258.5 61.8,249.0 65.5,239.4 69.3,229.9 73.1,223.2 76.8,220.4 80.6,215.6 84.3,211.8 88.1,208.0 91.9,204.2 95.6,200.4 99.4,197.5 103.2,195.6 106.9,192.8 110.7,189.0 114.5,185.2 118.2,182.3 122.0,179.9 125.8,178.0 129.5,177.1 133.3,176.1 137.0,176.1 140.8,176.1 144.6,176.1 148.3,176.1 152.1,176.1 155.9,175.2 159.6,174.2 163.4,173.2 167.2,172.3 170.9,171.3 174.7,169.4 178.4,167.5 182.2,165.6 186.0,163.7 189.7,162.8 193.5,161.8 197.3,160.9 201.0,159.9 204.8,159.0 208.6,158.0 212.3,157.1 216.1,157.1 219.8,156.1 223.6,155.2 227.4,154.2 231.1,154.2 234.9,153.3 238.7,152.3 242.4,150.4 246.2,149.4 250.0,148.5 253.7,147.5 257.5,146.6 261.2,145.6 265.0,143.7 268.8,140.9 272.5,138.0 276.3,137.1 280.1,136.1 283.8,135.2 287.6,133.3 291.4,131.3 295.1,129.4 298.9,128.5 302.7,127.5 306.4,126.6 310.2,126.6 313.9,126.6 317.7,126.6 321.5,126.6 325.2,124.7 329.0,122.8 332.8,120.9 336.5,119.0 340.3,118.0 344.1,117.1 347.8,116.1 351.6,115.2 355.3,114.2 359.1,113.3 362.9,111.3 366.6,110.4 370.4,109.4 374.2,109.4 377.9,108.5 381.7,107.5 385.5,106.6 389.2,105.6 393.0,104.7 396.8,102.8 400.5,100.9 404.3,99.0 408.0,99.0 411.8,98.0 415.6,98.0 419.3,98.0 423.1,98.0 426.9,97.1 430.6,96.1 434.4,95.2 438.2,93.3 441.9,92.3 445.7,89.4 449.4,85.6 453.2,83.7 457.0,81.8 460.7,78.0 464.5,75.2 468.3,74.2 472.0,71.4 475.8,69.4 479.6,68.5 483.3,67.5 487.1,66.6 490.8,65.6 494.6,65.6 498.4,65.6 502.1,65.6 505.9,65.6 509.7,65.6 513.4,63.7 517.2,63.7 521.0,61.8 524.7,60.9 528.5,59.9 532.2,59.0 536.0,59.0 539.8,59.0 543.5,58.0 547.3,57.1 551.1,56.1 554.8,55.2 558.6,55.2 562.4,55.2 566.1,55.2 569.9,55.2 573.7,55.2 577.4,55.2 581.2,55.2 584.9,54.2 588.7,53.3 592.5,52.3 596.2,51.4 600.0,50.4" fill="none" stroke="#ef4444" stroke-width="1.5" stroke-linejoin="round"/>
<polyline points="58.0,258.0 61.8,249.0 65.5,240.9 69.3,233.2 73.1,229.9 76.8,227.5 80.6,225.1 84.3,221.8 88.1,217.5 91.9,213.2 95.6,210.4 99.4,209.4 103.2,208.5 106.9,208.5 110.7,208.5 114.5,208.5 118.2,208.0 122.0,205.6 125.8,205.1 129.5,205.1 133.3,205.1 137.0,202.8 140.8,201.3 144.6,199.0 148.3,197.5 152.1,197.1 155.9,197.1 159.6,197.1 163.4,197.1 167.2,197.1 170.9,197.1 174.7,197.1 178.4,197.1 182.2,197.1 186.0,197.1 189.7,197.1 193.5,196.1 197.3,194.7 201.0,191.8 204.8,189.0 208.6,187.5 212.3,185.6 216.1,184.2 219.8,182.8 223.6,181.3 227.4,181.3 231.1,181.3 234.9,181.3 238.7,181.3 242.4,181.3 246.2,181.3 250.0,181.3 253.7,181.3 257.5,181.3 261.2,181.3 265.0,181.3 268.8,181.3 272.5,181.3 276.3,181.3 280.1,181.3 283.8,181.3 287.6,181.3 291.4,181.3 295.1,181.3 298.9,181.3 302.7,181.3 306.4,180.4 310.2,180.4 313.9,180.4 317.7,180.4 321.5,180.4 325.2,180.4 329.0,180.4 332.8,180.4 336.5,180.4 340.3,180.4 344.1,180.4 347.8,180.4 351.6,176.6 355.3,175.6 359.1,175.2 362.9,175.2 366.6,174.2 370.4,173.2 374.2,173.2 377.9,173.2 381.7,173.2 385.5,173.2 389.2,173.2 393.0,173.2 396.8,173.2 400.5,170.9 404.3,169.4 408.0,168.0 411.8,167.5 415.6,167.5 419.3,167.5 423.1,167.5 426.9,166.6 430.6,165.6 434.4,165.2 438.2,163.7 441.9,161.3 445.7,159.0 449.4,159.0 453.2,159.0 457.0,159.0 460.7,158.0 464.5,158.0 468.3,158.0 472.0,157.5 475.8,156.1 479.6,154.7 483.3,154.7 487.1,154.7 490.8,154.7 494.6,153.3 498.4,150.9 502.1,149.4 505.9,148.0 509.7,146.6 513.4,145.2 517.2,143.7 521.0,142.3 524.7,140.9" fill="none" stroke="#8b5cf6" stroke-width="1.5" stroke-linejoin="round"/>
<polyline points="58.0,258.0 61.8,247.5 65.5,240.9 69.3,233.7 73.1,230.4 76.8,228.0 80.6,225.6 84.3,223.2 88.1,220.9 91.9,218.5 95.6,216.1 99.4,212.8 103.2,211.3 106.9,209.4 110.7,209.0 114.5,209.0 118.2,208.5 122.0,208.5 125.8,207.5 129.5,207.5 133.3,207.5 137.0,207.5 140.8,207.5 144.6,207.1 148.3,206.1 152.1,204.7 155.9,203.2 159.6,202.3 163.4,200.4 167.2,199.9 170.9,199.4 174.7,199.4 178.4,199.0 182.2,196.6 186.0,195.2 189.7,194.7 193.5,194.7 197.3,194.7 201.0,194.7 204.8,194.7 208.6,194.2 212.3,192.8 216.1,191.3 219.8,191.3 223.6,189.4 227.4,187.5 231.1,186.6 234.9,186.6 238.7,185.2 242.4,182.3 246.2,179.9 250.0,179.4 253.7,179.0 257.5,179.0 261.2,178.5 265.0,177.1 268.8,177.1 272.5,177.1 276.3,177.1 280.1,177.1 283.8,177.1 287.6,177.1 291.4,177.1 295.1,177.1 298.9,177.1 302.7,177.1 306.4,177.1 310.2,177.1 313.9,176.6 317.7,175.2 321.5,172.3 325.2,169.4 329.0,168.0 332.8,166.6 336.5,166.6 340.3,166.6 344.1,166.6 347.8,166.6 351.6,166.6 355.3,165.6 359.1,165.6 362.9,165.6 366.6,164.7 370.4,164.7 374.2,164.7 377.9,163.7 381.7,162.8 385.5,161.8 389.2,161.8 393.0,161.8 396.8,161.8 400.5,161.8 404.3,161.8 408.0,161.8 411.8,161.8 415.6,160.9 419.3,159.9 423.1,159.9 426.9,159.9 430.6,159.9 434.4,159.0 438.2,159.0 441.9,159.0 445.7,158.5 449.4,157.5 453.2,156.6 457.0,155.6 460.7,154.7 464.5,153.7 468.3,152.8 472.0,151.8 475.8,150.9 479.6,149.9 483.3,149.0 487.1,148.0 490.8,147.1 494.6,146.1 498.4,145.2 502.1,145.2 505.9,145.2 509.7,145.2 513.4,145.2 517.2,145.2 521.0,145.2 524.7,145.2 528.5,145.2 532.2,145.2 536.0,145.2 539.8,145.2 543.5,145.2 547.3,145.2" fill="none" stroke="#ec4899" stroke-width="1.5" stroke-linejoin="round"/>
<line x1="66" x2="82" y1="50" y2="50" stroke="#3b82f6" stroke-width="2"/>
<text x="86" y="53" fill="#d1d5db" font-size="9">1S/1C/3R unknown</text>
<line x1="66" x2="82" y1="64" y2="64" stroke="#10b981" stroke-width="2"/>
<text x="86" y="67" fill="#d1d5db" font-size="9">1S/1C/3R map_known</text>
<line x1="66" x2="82" y1="78" y2="78" stroke="#f59e0b" stroke-width="2"/>
<text x="86" y="81" fill="#d1d5db" font-size="9">0S/0C/5R unknown</text>
<line x1="66" x2="82" y1="92" y2="92" stroke="#ef4444" stroke-width="2"/>
<text x="86" y="95" fill="#d1d5db" font-size="9">0S/0C/5R map_known</text>
<line x1="66" x2="82" y1="106" y2="106" stroke="#8b5cf6" stroke-width="2"/>
<text x="86" y="109" fill="#d1d5db" font-size="9">1S/1C/3R unknown  no-seek</text>
<line x1="66" x2="82" y1="120" y2="120" stroke="#ec4899" stroke-width="2"/>
<text x="86" y="123" fill="#d1d5db" font-size="9">1S/1C/3R map_known no-seek</text>
</svg>