<svg xmlns="http://www.w3.org/2000/svg" viewBox="0 0 620 320" width="620" height="320" style="background:#111318;border-radius:8px">
<text x="310.0" y="22" text-anchor="middle" fill="#e5e7eb" font-size="13" font-weight="700">Objects Retrieved vs Step  —  B</text>
<text x="14" y="154.0" text-anchor="middle" fill="#9ca3af" font-size="10" transform="rotate(-90,14,154.0)">Objects Retrieved</text>
<text x="329.0" y="314" text-anchor="middle" fill="#9ca3af" font-size="10">Step</text>
<line x1="58" x2="600" y1="268.0" y2="268.0" stroke="#374151" stroke-width="0.5"/>
<text x="52" y="271.0" text-anchor="end" fill="#6b7280" font-size="9">0</text>
<line x1="58" x2="600" y1="211.0" y2="211.0" stroke="#374151" stroke-width="0.5"/>
<text x="52" y="214.0" text-anchor="end" fill="#6b7280" font-size="9">2.6</text>
<line x1="58" x2="600" y1="154.0" y2="154.0" stroke="#374151" stroke-width="0.5"/>
<text x="52" y="157.0" text-anchor="end" fill="#6b7280" font-size="9">5.2</text>
<line x1="58" x2="600" y1="97.0" y2="97.0" stroke="#374151" stroke-width="0.5"/>
<text x="52" y="100.0" text-anchor="end" fill="#6b7280" font-size="9">7.9</text>
<line x1="58" x2="600" y1="40.0" y2="40.0" stroke="#374151" stroke-width="0.5"/>
<text x="52" y="43.0" text-anchor="end" fill="#6b7280" font-size="9">10.5</text>
<line x1="58.0" x2="58.0" y1="40" y2="268" stroke="#374151" stroke-width="0.5"/>
<text x="58.0" y="282" text-anchor="middle" fill="#6b7280" font-size="9">1</text>
<line x1="193.5" x2="193.5" y1="40" y2="268" stroke="#374151" stroke-width="0.5"/>
<text x="193.5" y="282" text-anchor="middle" fill="#6b7280" font-size="9">37</text>
<line x1="329.0" x2="329.0" y1="40" y2="268" stroke="#374151" stroke-width="0.5"/>
<text x="329.0" y="282" text-anchor="middle" fill="#6b7280" font-size="9">73</text>
<line x1="464.5" x2="464.5" y1="40" y2="268" stroke="#374151" stroke-width="0.5"/>
<text x="464.5" y="282" text-anchor="middle" fill="#6b7280" font-size="9">109</text>
<line x1="600.0" x2="600.0" y1="40" y2="268" stroke="#374151" stroke-width="0.5"/>
<text x="600.0" y="282" text-anchor="middle" fill="#6b7280" font-size="9">145</text>
<line x1="58" x2="58" y1="40" y2="268" stroke="#4b5563" stroke-width="1"/>
<line x1="58" x2="600" y1="268" y2="268" stroke="#4b5563" stroke-width="1"/>
<polyline points="58.0,268.0 61.8,268.0 65.5,268.0 69.3,268.0 73.1,268.0 76.8,268.0 80.6,268.0 84.3,268.0 88.1,268.0 91.9,268.0 95.6,268.0 99.4,268.0 103.2,268.0 106.9,268.0 110.7,224.6 114.5,224.6 118.2,224.6 122.0,224.6 125.8,224.6 129.5,224.6 133.3,224.6 137.0,224.6 140.8,224.6 144.6,224.6 148.3,224.6 152.1,224.6 155.9,224.6 159.6,224.6 163.4,224.6 167.2,224.6 170.9,224.6 174.7,224.6 178.4,224.6 182.2,202.9 186.0,202.9 189.7,202.9 193.5,202.9 197.3,202.9 201.0,202.9 204.8,202.9 208.6,202.9 212.3,202.9 216.1,202.9 219.8,202.9 223.6,202.9 227.4,159.4 231.1,159.4 234.9,159.4 238.7,159.4 242.4,159.4 246.2,159.4 250.0,159.4 253.7,159.4 257.5,159.4 261.2,159.4 265.0,159.4 268.8,159.4 272.5,159.4 276.3,159.4 280.1,159.4 283.8,159.4 287.6,159.4 291.4,159.4 295.1,159.4 298.9,159.4 302.7,159.4 306.4,159.4 310.2,159.4 313.9,159.4 317.7,159.4 321.5,159.4 325.2,159.4 329.0,159.4 332.8,159.4 336.5,159.4 340.3,159.4 344.1,159.4 347.8,159.4 351.6,159.4 355.3,159.4 359.1,159.4 362.9,137.7 366.6,137.7 370.4,137.7 374.2,137.7 377.9,137.7 381.7,137.7 385.5,94.3 389.2,94.3 393.0,94.3 396.8,94.3 400.5,94.3 404.3,94.3 408.0,72.6 411.8,72.6 415.6,72.6 419.3,72.6 423.1,72.6 426.9,72.6 430.6,72.6 434.4,72.6 438.2,72.6 441.9,72.6 445.7,50.9" fill="none" stroke="#3b82f6" stroke-width="1.5" stroke-linejoin="round"/>
<polyline points="58.0,268.0 61.8,268.0 65.5,268.0 69.3,268.0 73.1,268.0 76.8,268.0 80.6,268.0 84.3,268.0 88.1,268.0 91.9,268.0 95.6,268.0 99.4,268.0 103.2,268.0 106.9,268.0 110.7,268.0 114.5,224.6 118.2,224.6 122.0,224.6 125.8,224.6 129.5,224.6 133.3,224.6 137.0,224.6 140.8,224.6 144.6,224.6 148.3,224.6 152.1,181.1 155.9,181.1 159.6,181.1 163.4,181.1 167.2,181.1 170.9,181.1 174.7,181.1 178.4,181.1 182.2,181.1 186.0,159.4 189.7,159.4 193.5,159.4 197.3,159.4 201.0,159.4 204.8,159.4 208.6,159.4 212.3,159.4 216.1,159.4 219.8,159.4 223.6,159.4 227.4,159.4 231.1,159.4 234.9,159.4 238.7,159.4 242.4,159.4 246.2,159.4 250.0,159.4 253.7,159.4 257.5,159.4 261.2,159.4 265.0,159.4 268.8,159.4 272.5,159.4 276.3,159.4 280.1,159.4 283.8,159.4 287.6,159.4 291.4,159.4 295.1,159.4 298.9,159.4 302.7,159.4 306.4,159.4 310.2,159.4 313.9,159.4 317.7,159.4 321.5,159.4 325.2,159.4 329.0,159.4 332.8,159.4 336.5,159.4 340.3,159.4 344.1,159.4 347.8,116.0 351.6,116.0 355.3,116.0 359.1,116.0 362.9,116.0 366.6,116.0 370.4,116.0 374.2,116.0 377.9,116.0 381.7,116.0 385.5,116.0 389.2,116.0 393.0,116.0 396.8,116.0 400.5,116.0 404.3,116.0 408.0,116.0 411.8,116.0 415.6,116.0 419.3,116.0 423.1,116.0 426.9,116.0 430.6,116.0 434.4,116.0 438.2,116.0 441.9,116.0 445.7,116.0 449.4,116.0 453.2,116.0 457.0,116.0 460.7,116.0 464.5,116.0 468.3,116.0 472.0,72.6 475.8,72.6 479.6,72.6 483.3,72.6 487.1,72.6 490.8,72.6 494.6,72.6 498.4,72.6 502.1,72.6 505.9,72.6 509.7,72.6 513.4,72.6 517.2,72.6 521.0,72.6 524.7,72.6 528.5,72.6 532.2,72.6 536.0,72.6 539.8,72.6 543.5,72.6 547.3,72.6 551.1,72.6 554.8,72.6 558.6,50.9" fill="none" stroke="#10b981" stroke-width="1.5" stroke-linejoin="round"/>
<polyline points="58.0,268.0 61.8,268.0 65.5,268.0 69.3,268.0 73.1,268.0 76.8,268.0 80.6,268.0 84.3,268.0 88.1,268.0 91.9,268.0 95.6,268.0 99.4,268.0 103.2,268.0 106.9,268.0 110.7,224.6 114.5,224.6 118.2,224.6 122.0,224.6 125.8,224.6 129.5,224.6 133.3,224.6 137.0,224.6 140.8,224.6 144.6,224.6 148.3,224.6 152.1,224.6 155.9,224.6 159.6,224.6 163.4,224.6 167.2,224.6 170.9,224.6 174.7,224.6 178.4,224.6 182.2,202.9 186.0,202.9 189.7,202.9 193.5,202.9 197.3,181.1 201.0,181.1 204.8,181.1 208.6,181.1 212.3,181.1 216.1,181.1 219.8,181.1 223.6,181.1 227.4,181.1 231.1,181.1 234.9,181.1 238.7,159.4 242.4,159.4 246.2,137.7 250.0,137.7 253.7,137.7 257.5,137.7 261.2,137.7 265.0,137.7 268.8,137.7 272.5,137.7 276.3,137.7 280.1,137.7 283.8,137.7 287.6,137.7 291.4,137.7 295.1,116.0 298.9,94.3 302.7,94.3 306.4,94.3 310.2,94.3 313.9,94.3 317.7,94.3 321.5,94.3 325.2,94.3 329.0,94.3 332.8,94.3 336.5,94.3 340.3,94.3 344.1,94.3 347.8,94.3 351.6,94.3 355.3,94.3 359.1,94.3 362.9,94.3 366.6,94.3 370.4,94.3 374.2,94.3 377.9,94.3 381.7,94.3 385.5,94.3 389.2,94.3 393.0,94.3 396.8,72.6 400.5,72.6 404.3,72.6 408.0,72.6 411.8,72.6 415.6,72.6 419.3,72.6 423.1,72.6 426.9,72.6 430.6,72.6 434.4,72.6 438.2,72.6 441.9,72.6 445.7,72.6 449.4,72.6 453.2,50.9" fill="none" stroke="#f59e0b" stroke-width="1.5" stroke-linejoin="round"/>
<polyline points="58.0,268.0 61.8,268.0 65.5,268.0 69.3,268.0 73.1,268.0 76.8,268.0 80.6,268.0 84.3,268.0 88.1,268.0 91.9,268.0 95.6,268.0 99.4,268.0 103.2,268.0 106.9,268.0 110.7,268.0 114.5,268.0 118.2,224.6 122.0,224.6 125.8,224.6 129.5,224.6 133.3,224.6 137.0,224.6 140.8,181.1 144.6,181.1 148.3,181.1 152.1,181.1 155.9,181.1 159.6,181.1 163.4,181.1 167.2,181.1 170.9,181.1 174.7,181.1 178.4,181.1 182.2,159.4 186.0,159.4 189.7,159.4 193.5,159.4 197.3,159.4 201.0,159.4 204.8,159.4 208.6,159.4 212.3,159.4 216.1,159.4 219.8,159.4 223.6,159.4 227.4,159.4 231.1,159.4 234.9,159.4 238.7,159.4 242.4,159.4 246.2,159.4 250.0,159.4 253.7,159.4 257.5,159.4 261.2,159.4 265.0,159.4 268.8,159.4 272.5,159.4 276.3,159.4 280.1,159.4 283.8,159.4 287.6,159.4 291.4,116.0 295.1,116.0 298.9,116.0 302.7,116.0 306.4,116.0 310.2,116.0 313.9,116.0 317.7,116.0 321.5,116.0 325.2,116.0 329.0,116.0 332.8,116.0 336.5,116.0 340.3,116.0 344.1,116.0 347.8,116.0 351.6,116.0 355.3,116.0 359.1,116.0 362.9,116.0 366.6,116.0 370.4,116.0 374.2,116.0 377.9,116.0 381.7,116.0 385.5,116.0 389.2,116.0 393.0,116.0 396.8,116.0 400.5,116.0 404.3,116.0 408.0,116.0 411.8,116.0 415.6,116.0 419.3,116.0 423.1,116.0 426.9,116.0 430.6,116.0 434.4,116.0 438.2,116.0 441.9,116.0 445.7,116.0 449.4,116.0 453.2,116.0 457.0,116.0 460.7,116.0 464.5,116.0 468.3,116.0 472.0,116.0 475.8,116.0 479.6,116.0 483.3,116.0 487.1,116.0 490.8,116.0 494.6,116.0 498.4,116.0 502.1,116.0 505.9,116.0 509.7,116.0 513.4,116.0 517.2,116.0 521.0,94.3 524.7,94.3 528.5,94.3 532.2,94.3 536.0,94.3 539.8,94.3 543.5,94.3 547.3,94.3 551.1,94.3 554.8,94.3 558.6,94.3 562.4,94.3 566.1,94.3 569.9,94.3 573.7,94.3 577.4,94.3 581.2,72.6 584.9,72.6 588.7,72.6 592.5,72.6 596.2,72.6 600.0,50.9" fill="none" stroke="#ef4444" stroke-width="1.5" stroke-linejoin="round"/>
<polyline points="58.0,268.0 61.8,268.0 65.5,268.0 69.3,268.0 73.1,268.0 76.8,268.0 80.6,268.0 84.3,268.0 88.1,268.0 91.9,268.0 95.6,268.0 99.4,268.0 103.2,268.0 106.9,268.0 110.7,224.6 114.5,224.6 118.2,224.6 122.0,224.6 125.8,224.6 129.5,224.6 133.3,224.6 137.0,224.6 140.8,224.6 144.6,224.6 148.3,224.6 152.1,224.6 155.9,224.6 159.6,224.6 163.4,224.6 167.2,224.6 170.9,224.6 174.7,224.6 178.4,224.6 182.2,202.9 186.0,202.9 189.7,202.9 193.5,202.9 197.3,202.9 201.0,202.9 204.8,202.9 208.6,202.9 212.3,202.9 216.1,202.9 219.8,202.9 223.6,202.9 227.4,159.4 231.1,159.4 234.9,159.4 238.7,159.4 242.4,159.4 246.2,159.4 250.0,159.4 253.7,159.4 257.5,159.4 261.2,159.4 265.0,159.4 268.8,159.4 272.5,159.4 276.3,159.4 280.1,159.4 283.8,159.4 287.6,159.4 291.4,159.4 295.1,159.4 298.9,159.4 302.7,159.4 306.4,159.4 310.2,159.4 313.9,137.7 317.7,137.7 321.5,137.7 325.2,137.7 329.0,137.7 332.8,137.7 336.5,137.7 340.3,137.7 344.1,137.7 347.8,137.7 351.6,137.7 355.3,137.7 359.1,137.7 362.9,137.7 366.6,137.7 370.4,137.7 374.2,137.7 377.9,116.0 381.7,116.0 385.5,116.0 389.2,116.0 393.0,116.0 396.8,116.0 400.5,116.0 404.3,116.0 408.0,116.0 411.8,116.0 415.6,116.0 419.3,116.0 423.1,116.0 426.9,116.0 430.6,116.0 434.4,116.0 438.2,116.0 441.9,116.0 445.7,116.0 449.4,116.0 453.2,116.0 457.0,116.0 460.7,116.0 464.5,116.0 468.3,116.0 472.0,116.0 475.8,116.0 479.6,72.6 483.3,72.6 487.1,72.6 490.8,72.6 494.6,72.6 498.4,72.6 502.1,72.6 505.9,72.6 509.7,72.6 513.4,72.6 517.2,72.6 521.0,72.6 524.7,50.9" fill="none" stroke="#8b5cf6" stroke-width="1.5" stroke-linejoin="round"/>
<polyline points="58.0,268.0 61.8,268.0 65.5,268.0 69.3,268.0 73.1,268.0 76.8,268.0 80.6,268.0 84.3,268.0 88.1,268.0 91.9,268.0 95.6,268.0 99.4,268.0 103.2,268.0 106.9,268.0 110.7,268.0 114.5,224.6 118.2,224.6 122.0,224.6 125.8,224.6 129.5,224.6 133.3,224.6 137.0,224.6 140.8,224.6 144.6,224.6 148.3,224.6 152.1,181.1 155.9,181.1 159.6,181.1 163.4,181.1 167.2,181.1 170.9,181.1 174.7,181.1 178.4,181.1 182.2,181.1 186.0,159.4 189.7,159.4 193.5,159.4 197.3,159.4 201.0,159.4 204.8,159.4 208.6,159.4 212.3,159.4 216.1,159.4 219.8,159.4 223.6,159.4 227.4,159.4 231.1,159.4 234.9,159.4 238.7,159.4 242.4,159.4 246.2,159.4 250.0,159.4 253.7,159.4 257.5,159.4 261.2,159.4 265.0,159.4 268.8,159.4 272.5,159.4 276.3,159.4 280.1,159.4 283.8,159.4 287.6,159.4 291.4,159.4 295.1,159.4 298.9,159.4 302.7,159.4 306.4,159.4 310.2,159.4 313.9,159.4 317.7,159.4 321.5,159.4 325.2,159.4 329.0,159.4 332.8,159.4 336.5,159.4 340.3,159.4 344.1,159.4 347.8,116.0 351.6,116.0 355.3,116.0 359.1,116.0 362.9,116.0 366.6,116.0 370.4,116.0 374.2,116.0 377.9,116.0 381.7,116.0 385.5,116.0 389.2,116.0 393.0,116.0 396.8,116.0 400.5,116.0 404.3,116.0 408.0,116.0 411.8,116.0 415.6,116.0 419.3,116.0 423.1,116.0 426.9,116.0 430.6,116.0 434.4,116.0 438.2,116.0 441.9,116.0 445.7,116.0 449.4,116.0 453.2,116.0 457.0,116.0 460.7,116.0 464.5,116.0 468.3,116.0 472.0,72.6 475.8,72.6 479.6,72.6 483.3,72.6 487.1,72.6 490.8,72.6 494.6,72.6 498.4,72.6 502.1,72.6 505.9,72.6 509.7,72.6 513.4,72.6 517.2,72.6 521.0,72.6 524.7,72.6 528.5,72.6 532.2,72.6 536.0,72.6 539.8,72.6 543.5,72.6 547.3,50.9" fill="none" stroke="#ec4899" stroke-width="1.5" stroke-linejoin="round"/>
<line x1="66" x2="82" y1="50" y2="50" stroke="#3b82f6" stroke-width="2"/>
<text x="86" y="53" fill="#d1d5db" font-size="9">1S/1C/3R unknown</text>
<line x1="66" x2="82" y1="64" y2="64" stroke="#10b981" stroke-width="2"/>
<text x="86" y="67" fill="#d1d5db" font-size="9">1S/1C/3R map_known</text>
<line x1="66" x2="82" y1="78" y2="78" stroke="#f59e0b" stroke-width="2"/>
<text x="86" y="81" fill="#d1d5db" font-size="9">0S/0C/5R unknown</text>
<line x1="66" x2="82" y1="92" y2="92" stroke="#ef4444" stroke-width="2"/>
<text x="86" y="95" fill="#d1d5db" font-size="9">0S/0C/5R map_known</text>
<line x1="66" x2="82" y1="106" y2="106" stroke="#8b5cf6" stroke-width="2"/>
<text x="86" y="109" fill="#d1d5db" font-size="9">1S/1C/3R unknown  no-seek</text>
<line x1="66" x2="82" y1="120" y2="120" stroke="#ec4899" stroke-width="2"/>
<text x="86" y="123" fill="#d1d5db" font-size="9">1S/1C/3R map_known no-seek</text>
</svg>