<svg xmlns="http://www.w3.org/2000/svg" viewBox="0 0 620 320" width="620" height="320" style="background:#111318;border-radius:8px">
<text x="310.0" y="22" text-anchor="middle" fill="#e5e7eb" font-size="13" font-weight="700">Total Steps Comparison  —  B</text>
<text x="14" y="140.0" text-anchor="middle" fill="#9ca3af" font-size="10" transform="rotate(-90,14,140.0)">Steps</text>
<line x1="58" x2="600" y1="240.0" y2="240.0" stroke="#374151" stroke-width="0.5"/>
<text x="52" y="243.0" text-anchor="end" fill="#6b7280" font-size="9">0</text>
<line x1="58" x2="600" y1="190.0" y2="190.0" stroke="#374151" stroke-width="0.5"/>
<text x="52" y="193.0" text-anchor="end" fill="#6b7280" font-size="9">39</text>
<line x1="58" x2="600" y1="140.0" y2="140.0" stroke="#374151" stroke-width="0.5"/>
<text x="52" y="143.0" text-anchor="end" fill="#6b7280" font-size="9">79</text>
<line x1="58" x2="600" y1="90.0" y2="90.0" stroke="#374151" stroke-width="0.5"/>
<text x="52" y="93.0" text-anchor="end" fill="#6b7280" font-size="9">119</text>
<line x1="58" x2="600" y1="40.0" y2="40.0" stroke="#374151" stroke-width="0.5"/>
<text x="52" y="43.0" text-anchor="end" fill="#6b7280" font-size="9">159</text>
<line x1="58" x2="58" y1="40" y2="240" stroke="#4b5563" stroke-width="1"/>
<line x1="58" x2="600" y1="240" y2="240" stroke="#4b5563" stroke-width="1"/>
<rect x="66.0" y="109.6" width="81.0" height="130.4" fill="#3b82f6" rx="3"/>
<text x="106.5" y="105.6" text-anchor="middle" fill="#d1d5db" font-size="10" font-weight="600">104</text>
<text x="106.5" y="252" text-anchor="end" fill="#6b7280" font-size="8" transform="rotate(-35,106.5,252)">1S/1C/3R unknown</text>
<rect x="155.0" y="72.0" width="81.0" height="168.0" fill="#10b981" rx="3"/>
<text x="195.5" y="68.0" text-anchor="middle" fill="#d1d5db" font-size="10" font-weight="600">134</text>
<text x="195.5" y="252" text-anchor="end" fill="#6b7280" font-size="8" transform="rotate(-35,195.5,252)">1S/1C/3R map_known</text>
<rect x="244.0" y="107.1" width="81.0" height="132.9" fill="#f59e0b" rx="3"/>
<text x="284.5" y="103.1" text-anchor="middle" fill="#d1d5db" font-size="10" font-weight="600">106</text>
<text x="284.5" y="252" text-anchor="end" fill="#6b7280" font-size="8" transform="rotate(-35,284.5,252)">0S/0C/5R unknown</text>
<rect x="333.0" y="58.2" width="81.0" height="181.8" fill="#ef4444" rx="3"/>
<text x="373.5" y="54.2" text-anchor="middle" fill="#d1d5db" font-size="10" font-weight="600">145</text>
<text x="373.5" y="252" text-anchor="end" fill="#6b7280" font-size="8" transform="rotate(-35,373.5,252)">0S/0C/5R map_known</text>
<rect x="422.0" y="83.3" width="81.0" height="156.7" fill="#8b5cf6" rx="3"/>
<text x="462.5" y="79.3" text-anchor="middle" fill="#d1d5db" font-size="10" font-weight="600">125</text>
<text x="462.5" y="252" text-anchor="end" fill="#6b7280" font-size="8" transform="rotate(-35,462.5,252)">1S/1C/3R unknown  no-seek</text>
<rect x="511.0" y="75.7" width="81.0" height="164.3" fill="#ec4899" rx="3"/>
<text x="551.5" y="71.7" text-anchor="middle" fill="#d1d5db" font-size="10" font-weight="600">131</text>
<text x="551.5" y="252" text-anchor="end" fill="#6b7280" font-size="8" transform="rotate(-35,551.5,252)">1S/1C/3R map_known no-seek</text>
</svg>