<svg xmlns="http://www.w3.org/2000/svg" viewBox="0 0 620 320" width="620" height="320" style="background:#111318;border-radius:8px">
<text x="310.0" y="22" text-anchor="middle" fill="#e5e7eb" font-size="13" font-weight="700">Retrieval Efficiency vs Step  —  A</text>
<text x="14" y="154.0" text-anchor="middle" fill="#9ca3af" font-size="10" transform="rotate(-90,14,154.0)">Obj / 100 steps</text>
<text x="329.0" y="314" text-anchor="middle" fill="#9ca3af" font-size="10">Step</text>
<line x1="58" x2="600" y1="268.0" y2="268.0" stroke="#374151" stroke-width="0.5"/>
<text x="52" y="271.0" text-anchor="end" fill="#6b7280" font-size="9">0</text>
<line x1="58" x2="600" y1="211.0" y2="211.0" stroke="#374151" stroke-width="0.5"/>
<text x="52" y="214.0" text-anchor="end" fill="#6b7280" font-size="9">5.0</text>
<line x1="58" x2="600" y1="154.0" y2="154.0" stroke="#374151" stroke-width="0.5"/>
<text x="52" y="157.0" text-anchor="end" fill="#6b7280" font-size="9">9.9</text>
<line x1="58" x2="600" y1="97.0" y2="97.0" stroke="#374151" stroke-width="0.5"/>
<text x="52" y="100.0" text-anchor="end" fill="#6b7280" font-size="9">14.9</text>
<line x1="58" x2="600" y1="40.0" y2="40.0" stroke="#374151" stroke-width="0.5"/>
<text x="52" y="43.0" text-anchor="end" fill="#6b7280" font-size="9">19.9</text>
<line x1="58.0" x2="58.0" y1="40" y2="268" stroke="#374151" stroke-width="0.5"/>
<text x="58.0" y="282" text-anchor="middle" fill="#6b7280" font-size="9">1</text>
<line x1="194.4" x2="194.4" y1="40" y2="268" stroke="#374151" stroke-width="0.5"/>
<text x="194.4" y="282" text-anchor="middle" fill="#6b7280" font-size="9">38</text>
<line x1="327.2" x2="327.2" y1="40" y2="268" stroke="#374151" stroke-width="0.5"/>
<text x="327.2" y="282" text-anchor="middle" fill="#6b7280" font-size="9">74</text>
<line x1="463.6" x2="463.6" y1="40" y2="268" stroke="#374151" stroke-width="0.5"/>
<text x="463.6" y="282" text-anchor="middle" fill="#6b7280" font-size="9">111</text>
<line x1="600.0" x2="600.0" y1="40" y2="268" stroke="#374151" stroke-width="0.5"/>
<text x="600.0" y="282" text-anchor="middle" fill="#6b7280" font-size="9">148</text>
<line x1="58" x2="58" y1="40" y2="268" stroke="#4b5563" stroke-width="1"/>
<line x1="58" x2="600" y1="268" y2="268" stroke="#4b5563" stroke-width="1"/>
<polyline points="58.0,268.0 61.7,268.0 65.4,268.0 69.1,268.0 72.7,268.0 76.4,268.0 80.1,268.0 83.8,268.0 87.5,268.0 91.2,268.0 94.9,268.0 98.6,268.0 102.2,268.0 105.9,268.0 109.6,268.0 113.3,268.0 117.0,268.0 120.7,268.0 124.4,268.0 128.1,268.0 131.7,268.0 135.4,268.0 139.1,268.0 142.8,268.0 146.5,176.2 150.2,179.7 153.9,183.0 157.6,186.0 161.2,188.8 164.9,191.5 168.6,194.0 172.3,196.3 176.0,163.7 179.7,166.7 183.4,169.6 187.0,172.4 190.7,174.9 194.4,177.4 198.1,150.3 201.8,153.2 205.5,156.0 209.2,131.4 212.9,134.5 216.5,137.6 220.2,140.5 223.9,143.2 227.6,145.9 231.3,148.4 235.0,150.9 238.7,153.2 242.4,155.5 246.0,157.6 249.7,159.7 253.4,161.7 257.1,163.7 260.8,165.5 264.5,167.3 268.2,169.1 271.9,170.7 275.5,172.4 279.2,173.9 282.9,175.4 286.6,176.9 290.3,178.3 294.0,179.7 297.7,181.0 301.3,182.3 305.0,183.6 308.7,151.6 312.4,153.2 316.1,154.8 319.8,156.4 323.5,157.9 327.2,159.4 330.8,160.9 334.5,162.3 338.2,163.7 341.9,165.0 345.6,137.2 349.3,138.9 353.0,140.5 356.7,142.0 360.3,143.5 364.0,145.0 367.7,146.5 371.4,147.9 375.1,149.3 378.8,150.6 382.5,151.9 386.1,153.2 389.8,154.5 393.5,155.7 397.2,156.9 400.9,158.1 404.6,159.3 408.3,160.4 412.0,161.5 415.6,162.6 419.3,163.7 423.0,164.7 426.7,165.7 430.4,166.7 434.1,167.7 437.8,168.7 441.5,169.6 445.1,170.5 448.8,171.5 452.5,172.4 456.2,173.2 459.9,174.1 463.6,174.9 467.3,175.8 471.0,176.6 474.6,177.4 478.3,178.2 482.0,179.0 485.7,179.7 489.4,180.5 493.1,181.2 496.8,181.9 500.4,182.6 504.1,183.3 507.8,184.0 511.5,184.7 515.2,176.2" fill="none" stroke="#3b82f6" stroke-width="1.5" stroke-linejoin="round"/>
<polyline points="58.0,268.0 61.7,268.0 65.4,268.0 69.1,268.0 72.7,268.0 76.4,268.0 80.1,268.0 83.8,268.0 87.5,268.0 91.2,268.0 94.9,268.0 98.6,268.0 102.2,268.0 105.9,268.0 109.6,268.0 113.3,268.0 117.0,268.0 120.7,204.2 124.4,207.6 128.1,210.6 131.7,213.3 135.4,215.8 139.1,218.1 142.8,220.2 146.5,222.1 150.2,135.6 153.9,140.5 157.6,145.0 161.2,149.3 164.9,153.2 168.6,156.9 172.3,160.4 176.0,94.1 179.7,99.2 183.4,104.0 187.0,108.6 190.7,50.9 194.4,56.6 198.1,62.0 201.8,67.1 205.5,72.0 209.2,76.7 212.9,81.2 216.5,85.4 220.2,89.5 223.9,93.3 227.6,97.1 231.3,100.6 235.0,104.0 238.7,84.4 242.4,88.0 246.0,91.4 249.7,94.8 253.4,98.0 257.1,101.1 260.8,104.0 264.5,106.9 268.2,109.7 271.9,112.4 275.5,115.0 279.2,117.5 282.9,119.9 286.6,122.3 290.3,124.5 294.0,126.7 297.7,128.9 301.3,131.0 305.0,133.0 308.7,118.3 312.4,104.0" fill="none" stroke="#10b981" stroke-width="1.5" stroke-linejoin="round"/>
<polyline points="58.0,268.0 61.7,268.0 65.4,268.0 69.1,268.0 72.7,268.0 76.4,268.0 80.1,268.0 83.8,268.0 87.5,268.0 91.2,268.0 94.9,268.0 98.6,268.0 102.2,268.0 105.9,268.0 109.6,191.5 113.3,196.3 117.0,200.5 120.7,204.2 124.4,207.6 128.1,210.6 131.7,213.3 135.4,215.8 139.1,218.1 142.8,220.2 146.5,222.1 150.2,223.9 153.9,225.5 157.6,227.0 161.2,228.4 164.9,229.7 168.6,156.9 172.3,124.5 176.0,128.9 179.7,133.0 183.4,136.8 187.0,108.6 190.7,112.9 194.4,117.0 198.1,120.9 201.8,124.5 205.5,128.0 209.2,131.4 212.9,134.5 216.5,137.6 220.2,140.5 223.9,143.2 227.6,145.9 231.3,124.5 235.0,127.5 238.7,130.3 242.4,133.0 246.0,135.6 249.7,138.1 253.4,140.5 257.1,142.8 260.8,145.0 264.5,147.2 268.2,149.3 271.9,151.3 275.5,153.2 279.2,155.1 282.9,156.9 286.6,158.7 290.3,160.4 294.0,162.1 297.7,163.7 301.3,148.1 305.0,149.8 308.7,151.6 312.4,153.2 316.1,154.8 319.8,156.4 323.5,157.9 327.2,159.4 330.8,160.9 334.5,162.3 338.2,163.7 341.9,165.0 345.6,166.3 349.3,167.6 353.0,168.8 356.7,170.0 360.3,171.2 364.0,172.4 367.7,173.5 371.4,174.6 375.1,175.7 378.8,176.7 382.5,177.7 386.1,166.0 389.8,167.1 393.5,168.2 397.2,169.3 400.9,170.3 404.6,171.3 408.3,172.4 412.0,173.3 415.6,174.3 419.3,175.3 423.0,176.2 426.7,165.7 430.4,166.7 434.1,167.7 437.8,168.7 441.5,169.6 445.1,170.5 448.8,171.5 452.5,172.4 456.2,173.2 459.9,174.1 463.6,174.9 467.3,175.8 471.0,176.6 474.6,177.4 478.3,178.2 482.0,179.0 485.7,179.7 489.4,180.5 493.1,181.2 496.8,181.9 500.4,182.6 504.1,183.3 507.8,184.0 511.5,184.7 515.2,185.4 518.9,186.0 522.6,186.7 526.3,187.3 529.9,187.9 533.6,188.5 537.3,189.1 541.0,189.7 544.7,190.3 548.4,190.9 552.1,191.5 555.8,192.0 559.4,192.6 563.1,193.1 566.8,193.7 570.5,194.2 574.2,194.7 577.9,195.3 581.6,195.8 585.3,196.3 588.9,196.8 592.6,197.2 596.3,197.7 600.0,190.4" fill="none" stroke="#f59e0b" stroke-width="1.5" stroke-linejoin="round"/>
<polyline points="58.0,268.0 61.7,268.0 65.4,268.0 69.1,268.0 72.7,268.0 76.4,268.0 80.1,268.0 83.8,268.0 87.5,268.0 91.2,268.0 94.9,268.0 98.6,268.0 102.2,268.0 105.9,268.0 109.6,268.0 113.3,268.0 117.0,200.5 120.7,204.2 124.4,207.6 128.1,210.6 131.7,213.3 135.4,215.8 139.1,218.1 142.8,220.2 146.5,222.1 150.2,223.9 153.9,225.5 157.6,227.0 161.2,228.4 164.9,229.7 168.6,231.0 172.3,232.1 176.0,233.2 179.7,234.2 183.4,235.2 187.0,236.1 190.7,237.0 194.4,207.6 198.1,209.1 201.8,210.6 205.5,156.0 209.2,104.0 212.9,107.8 216.5,111.5 220.2,89.5 223.9,68.4 227.6,72.6 231.3,76.7 235.0,80.6 238.7,84.4 242.4,88.0 246.0,91.4 249.7,94.8 253.4,98.0 257.1,101.1 260.8,104.0 264.5,106.9 268.2,109.7 271.9,112.4 275.5,115.0 279.2,117.5 282.9,119.9 286.6,122.3 290.3,124.5 294.0,126.7 297.7,128.9 301.3,131.0 305.0,133.0 308.7,118.3 312.4,120.4 316.1,122.5 319.8,124.5 323.5,126.5 327.2,128.4 330.8,130.3 334.5,132.1 338.2,133.8 341.9,135.6 345.6,137.2 349.3,138.9 353.0,140.5 356.7,128.0" fill="none" stroke="#ef4444" stroke-width="1.5" stroke-linejoin="round"/>
<polyline points="58.0,268.0 61.7,268.0 65.4,268.0 69.1,268.0 72.7,268.0 76.4,268.0 80.1,268.0 83.8,268.0 87.5,268.0 91.2,268.0 94.9,268.0 98.6,268.0 102.2,268.0 105.9,268.0 109.6,268.0 113.3,268.0 117.0,268.0 120.7,268.0 124.4,268.0 128.1,268.0 131.7,268.0 135.4,268.0 139.1,268.0 142.8,268.0 146.5,176.2 150.2,179.7 153.9,183.0 157.6,186.0 161.2,188.8 164.9,191.5 168.6,194.0 172.3,196.3 176.0,163.7 179.7,166.7 183.4,169.6 187.0,172.4 190.7,174.9 194.4,177.4 198.1,150.3 201.8,153.2 205.5,156.0 209.2,158.7 212.9,161.2 216.5,111.5 220.2,115.0 223.9,118.3 227.6,121.5 231.3,124.5 235.0,127.5 238.7,130.3 242.4,133.0 246.0,135.6 249.7,138.1 253.4,140.5 257.1,142.8 260.8,145.0 264.5,147.2 268.2,149.3 271.9,151.3 275.5,153.2 279.2,155.1 282.9,156.9 286.6,158.7 290.3,160.4 294.0,162.1 297.7,163.7 301.3,165.2 305.0,166.7 308.7,168.2 312.4,169.6 316.1,171.0 319.8,172.4 323.5,173.7 327.2,174.9 330.8,176.2 334.5,177.4 338.2,178.6 341.9,179.7 345.6,180.8 349.3,181.9 353.0,183.0 356.7,156.0 360.3,157.4 364.0,158.7 367.7,160.0 371.4,161.2 375.1,162.5 378.8,163.7 382.5,164.8 386.1,166.0 389.8,167.1 393.5,168.2 397.2,169.3 400.9,170.3 404.6,171.3 408.3,172.4 412.0,173.3 415.6,174.3 419.3,175.3 423.0,176.2 426.7,177.1 430.4,178.0 434.1,178.9 437.8,179.7 441.5,180.6 445.1,181.4 448.8,182.2 452.5,183.0 456.2,183.8 459.9,174.1 463.6,174.9 467.3,175.8 471.0,176.6 474.6,177.4 478.3,168.2" fill="none" stroke="#8b5cf6" stroke-width="1.5" stroke-linejoin="round"/>
<polyline points="58.0,268.0 61.7,268.0 65.4,268.0 69.1,268.0 72.7,268.0 76.4,268.0 80.1,268.0 83.8,268.0 87.5,268.0 91.2,268.0 94.9,268.0 98.6,268.0 102.2,268.0 105.9,268.0 109.6,268.0 113.3,268.0 117.0,268.0 120.7,204.2 124.4,207.6 128.1,210.6 131.7,213.3 135.4,215.8 139.1,218.1 142.8,220.2 146.5,222.1 150.2,135.6 153.9,140.5 157.6,145.0 161.2,149.3 164.9,153.2 168.6,156.9 172.3,160.4 176.0,94.1 179.7,99.2 183.4,104.0 187.0,108.6 190.7,50.9 194.4,56.6 198.1,62.0 201.8,67.1 205.5,72.0 209.2,76.7 212.9,81.2 216.5,85.4 220.2,89.5 223.9,93.3 227.6,97.1 231.3,100.6 235.0,104.0 238.7,107.3 242.4,110.5 246.0,113.5 249.7,116.4 253.4,98.0 257.1,101.1 260.8,104.0 264.5,106.9 268.2,109.7 271.9,112.4 275.5,115.0 279.2,117.5 282.9,119.9 286.6,122.3 290.3,124.5 294.0,126.7 297.7,128.9 301.3,131.0 305.0,133.0 308.7,134.9 312.4,120.4 316.1,122.5 319.8,124.5 323.5,126.5 327.2,128.4 330.8,115.0" fill="none" stroke="#ec4899" stroke-width="1.5" stroke-linejoin="round"/>
<line x1="66" x2="82" y1="50" y2="50" stroke="#3b82f6" stroke-width="2"/>
<text x="86" y="53" fill="#d1d5db" font-size="9">1S/1C/3R unknown</text>
<line x1="66" x2="82" y1="64" y2="64" stroke="#10b981" stroke-width="2"/>
<text x="86" y="67" fill="#d1d5db" font-size="9">1S/1C/3R map_known</text>
<line x1="66" x2="82" y1="78" y2="78" stroke="#f59e0b" stroke-width="2"/>
<text x="86" y="81" fill="#d1d5db" font-size="9">0S/0C/5R unknown</text>
<line x1="66" x2="82" y1="92" y2="92" stroke="#ef4444" stroke-width="2"/>
<text x="86" y="95" fill="#d1d5db" font-size="9">0S/0C/5R map_known</text>
<line x1="66" x2="82" y1="106" y2="106" stroke="#8b5cf6" stroke-width="2"/>
<text x="86" y="109" fill="#d1d5db" font-size="9">1S/1C/3R unknown  no-seek</text>
<line x1="66" x2="82" y1="120" y2="120" stroke="#ec4899" stroke-width="2"/>
<text x="86" y="123" fill="#d1d5db" font-size="9">1S/1C/3R map_known no-seek</text>
</svg>