<svg xmlns="http://www.w3.org/2000/svg" viewBox="0 0 620 320" width="620" height="320" style="background:#111318;border-radius:8px">
<text x="310.0" y="22" text-anchor="middle" fill="#e5e7eb" font-size="13" font-weight="700">Average Agent Energy vs Step  —  A</text>
<text x="14" y="154.0" text-anchor="middle" fill="#9ca3af" font-size="10" transform="rotate(-90,14,154.0)">Avg Energy</text>
<text x="329.0" y="314" text-anchor="middle" fill="#9ca3af" font-size="10">Step</text>
<line x1="58" x2="600" y1="268.0" y2="268.0" stroke="#374151" stroke-width="0.5"/>
<text x="52" y="271.0" text-anchor="end" fill="#6b7280" font-size="9">370.2</text>
<line x1="58" x2="600" y1="211.0" y2="211.0" stroke="#374151" stroke-width="0.5"/>
<text x="52" y="214.0" text-anchor="end" fill="#6b7280" font-size="9">404.1</text>
<line x1="58" x2="600" y1="154.0" y2="154.0" stroke="#374151" stroke-width="0.5"/>
<text x="52" y="157.0" text-anchor="end" fill="#6b7280" font-size="9">437.9</text>
<line x1="58" x2="600" y1="97.0" y2="97.0" stroke="#374151" stroke-width="0.5"/>
<text x="52" y="100.0" text-anchor="end" fill="#6b7280" font-size="9">471.7</text>
<line x1="58" x2="600" y1="40.0" y2="40.0" stroke="#374151" stroke-width="0.5"/>
<text x="52" y="43.0" text-anchor="end" fill="#6b7280" font-size="9">505.6</text>
<line x1="58.0" x2="58.0" y1="40" y2="268" stroke="#374151" stroke-width="0.5"/>
<text x="58.0" y="282" text-anchor="middle" fill="#6b7280" font-size="9">1</text>
<line x1="194.4" x2="194.4" y1="40" y2="268" stroke="#374151" stroke-width="0.5"/>
<text x="194.4" y="282" text-anchor="middle" fill="#6b7280" font-size="9">38</text>
<line x1="327.2" x2="327.2" y1="40" y2="268" stroke="#374151" stroke-width="0.5"/>
<text x="327.2" y="282" text-anchor="middle" fill="#6b7280" font-size="9">74</text>
<line x1="463.6" x2="463.6" y1="40" y2="268" stroke="#374151" stroke-width="0.5"/>
<text x="463.6" y="282" text-anchor="middle" fill="#6b7280" font-size="9">111</text>
<line x1="600.0" x2="600.0" y1="40" y2="268" stroke="#374151" stroke-width="0.5"/>
<text x="600.0" y="282" text-anchor="middle" fill="#6b7280" font-size="9">148</text>
<line x1="58" x2="58" y1="40" y2="268" stroke="#4b5563" stroke-width="1"/>
<line x1="58" x2="600" y1="268" y2="268" stroke="#4b5563" stroke-width="1"/>
<polyline points="58.0,50.4 61.7,53.1 65.4,54.4 69.1,55.8 72.7,57.1 76.4,58.8 80.1,60.1 83.8,61.8 87.5,63.5 91.2,65.2 94.9,67.1 98.6,69.1 102.2,70.8 105.9,72.7 109.6,74.7 113.3,76.4 117.0,78.1 120.7,79.8 124.4,81.4 128.1,83.5 131.7,85.5 135.4,87.4 139.1,89.4 142.8,91.3 146.5,92.8 150.2,94.6 153.9,96.7 157.6,98.5 161.2,100.3 164.9,102.4 168.6,104.2 172.3,105.8 176.0,107.5 179.7,109.3 183.4,111.0 187.0,112.8 190.7,114.8 194.4,116.6 198.1,118.2 201.8,119.9 205.5,121.6 209.2,123.2 212.9,124.8 216.5,126.5 220.2,128.2 223.9,129.9 227.6,131.4 231.3,132.9 235.0,134.9 238.7,136.6 242.4,138.3 246.0,139.9 249.7,141.6 253.4,143.4 257.1,144.8 260.8,146.2 264.5,147.6 268.2,149.0 271.9,150.5 275.5,151.9 279.2,153.1 282.9,154.5 286.6,155.9 290.3,157.3 294.0,159.1 297.7,160.8 301.3,162.6 305.0,164.3 308.7,166.0 312.4,168.0 316.1,169.7 319.8,171.7 323.5,173.4 327.2,174.7 330.8,176.1 334.5,177.8 338.2,179.5 341.9,181.3 345.6,182.9 349.3,184.5 353.0,186.1 356.7,187.7 360.3,189.4 364.0,191.0 367.7,192.6 371.4,194.2 375.1,195.8 378.8,197.4 382.5,199.1 386.1,200.7 389.8,202.3 393.5,203.9 397.2,205.5 400.9,207.1 404.6,208.8 408.3,210.4 412.0,212.0 415.6,213.6 419.3,215.2 423.0,216.9 426.7,218.5 430.4,220.1 434.1,221.7 437.8,223.3 441.5,224.9 445.1,226.6 448.8,228.2 452.5,229.9 456.2,231.6 459.9,233.3 463.6,235.0 467.3,236.7 471.0,238.4 474.6,240.0 478.3,241.7 482.0,243.4 485.7,245.1 489.4,247.1 493.1,248.6 496.8,250.1 500.4,251.6 504.1,253.1 507.8,254.5 511.5,256.0 515.2,257.6" fill="none" stroke="#3b82f6" stroke-width="1.5" stroke-linejoin="round"/>
<polyline points="58.0,51.4 61.7,53.1 65.4,54.7 69.1,56.8 72.7,58.8 76.4,60.8 80.1,62.8 83.8,64.9 87.5,66.9 91.2,68.9 94.9,70.9 98.6,72.8 102.2,74.5 105.9,76.4 109.6,78.3 113.3,80.6 117.0,82.6 120.7,84.4 124.4,86.2 128.1,88.0 131.7,89.9 135.4,91.7 139.1,93.5 142.8,95.3 146.5,97.1 150.2,98.8 153.9,100.2 157.6,102.1 161.2,103.8 164.9,105.6 168.6,107.5 172.3,109.3 176.0,111.1 179.7,112.8 183.4,114.6 187.0,116.4 190.7,118.0 194.4,119.6 198.1,121.2 201.8,122.9 205.5,124.6 209.2,125.9 212.9,127.3 216.5,129.2 220.2,130.8 223.9,132.5 227.6,134.2 231.3,135.9 235.0,137.6 238.7,139.2 242.4,140.8 246.0,142.4 249.7,144.1 253.4,145.7 257.1,147.3 260.8,148.9 264.5,150.5 268.2,152.2 271.9,153.9 275.5,155.7 279.2,157.4 282.9,159.2 286.6,160.9 290.3,162.7 294.0,164.4 297.7,166.2 301.3,167.9 305.0,169.7 308.7,171.4 312.4,173.0" fill="none" stroke="#10b981" stroke-width="1.5" stroke-linejoin="round"/>
<polyline points="58.0,50.7 61.7,52.0 65.4,53.4 69.1,55.1 72.7,56.8 76.4,58.5 80.1,59.8 83.8,61.1 87.5,62.8 91.2,64.5 94.9,66.1 98.6,67.4 102.2,69.0 105.9,70.5 109.6,72.0 113.3,73.6 117.0,75.1 120.7,76.7 124.4,77.8 128.1,79.3 131.7,80.8 135.4,82.2 139.1,83.6 142.8,85.0 146.5,86.4 150.2,87.8 153.9,89.3 157.6,90.4 161.2,91.9 164.9,93.3 168.6,94.6 172.3,95.6 176.0,96.1 179.7,96.9 183.4,98.1 187.0,99.2 190.7,100.4 194.4,101.7 198.1,102.9 201.8,104.1 205.5,105.3 209.2,106.5 212.9,107.7 216.5,108.9 220.2,110.0 223.9,111.0 227.6,112.0 231.3,113.1 235.0,114.3 238.7,115.2 242.4,116.2 246.0,117.1 249.7,118.0 253.4,119.0 257.1,120.3 260.8,121.2 264.5,122.2 268.2,123.1 271.9,124.0 275.5,125.0 279.2,125.9 282.9,126.9 286.6,127.6 290.3,128.6 294.0,129.6 297.7,130.6 301.3,131.5 305.0,132.5 308.7,133.4 312.4,134.6 316.1,135.7 319.8,136.6 323.5,137.6 327.2,138.5 330.8,139.7 334.5,140.8 338.2,142.0 341.9,143.1 345.6,144.3 349.3,145.5 353.0,146.7 356.7,147.9 360.3,149.6 364.0,150.8 367.7,152.0 371.4,153.2 375.1,154.4 378.8,155.7 382.5,157.1 386.1,158.2 389.8,159.4 393.5,160.5 397.2,161.7 400.9,162.8 404.6,163.7 408.3,164.9 412.0,166.0 415.6,167.2 419.3,168.5 423.0,169.7 426.7,170.8 430.4,172.0 434.1,173.1 437.8,174.1 441.5,175.0 445.1,176.5 448.8,177.6 452.5,178.6 456.2,179.5 459.9,180.5 463.6,181.4 467.3,182.3 471.0,183.3 474.6,184.2 478.3,185.2 482.0,186.1 485.7,187.1 489.4,188.0 493.1,188.9 496.8,189.9 500.4,190.8 504.1,191.8 507.8,192.7 511.5,193.7 515.2,194.6 518.9,195.6 522.6,196.5 526.3,197.4 529.9,198.4 533.6,199.3 537.3,200.5 541.0,201.6 544.7,202.8 548.4,203.9 552.1,204.9 555.8,206.0 559.4,207.1 563.1,208.3 566.8,209.5 570.5,210.7 574.2,211.9 577.9,213.4 581.6,214.6 585.3,215.8 588.9,217.1 592.6,218.3 596.3,219.5 600.0,220.6" fill="none" stroke="#f59e0b" stroke-width="1.5" stroke-linejoin="round"/>
<polyline points="58.0,50.7 61.7,51.4 65.4,52.4 69.1,54.1 72.7,55.4 76.4,56.8 80.1,58.5 83.8,60.1 87.5,61.8 91.2,63.5 94.9,65.1 98.6,66.5 102.2,68.1 105.9,69.6 109.6,71.2 113.3,72.8 117.0,74.4 120.7,75.6 124.4,76.8 128.1,78.3 131.7,79.9 135.4,81.4 139.1,83.0 142.8,83.9 146.5,84.7 150.2,86.2 153.9,87.6 157.6,89.5 161.2,91.1 164.9,92.6 168.6,94.2 172.3,95.7 176.0,97.2 179.7,98.7 183.4,99.9 187.0,101.7 190.7,103.1 194.4,104.6 198.1,106.0 201.8,107.5 205.5,108.9 209.2,110.1 212.9,111.1 216.5,112.4 220.2,113.6 223.9,114.7 227.6,115.9 231.3,117.0 235.0,118.2 238.7,119.3 242.4,120.5 246.0,121.4 249.7,122.4 253.4,123.5 257.1,124.6 260.8,125.8 264.5,127.0 268.2,128.2 271.9,129.4 275.5,130.8 279.2,132.3 282.9,133.5 286.6,134.8 290.3,136.0 294.0,137.2 297.7,138.4 301.3,139.6 305.0,140.8 308.7,142.0 312.4,143.1 316.1,144.3 319.8,145.5 323.5,146.7 327.2,147.9 330.8,149.1 334.5,150.7 338.2,151.9 341.9,153.1 345.6,154.3 349.3,155.5 353.0,156.7 356.7,157.9" fill="none" stroke="#ef4444" stroke-width="1.5" stroke-linejoin="round"/>
<polyline points="58.0,50.4 61.7,53.1 65.4,54.4 69.1,55.8 72.7,57.1 76.4,58.8 80.1,60.1 83.8,61.8 87.5,63.5 91.2,65.2 94.9,67.1 98.6,69.1 102.2,70.8 105.9,72.7 109.6,74.7 113.3,76.4 117.0,78.1 120.7,79.8 124.4,81.4 128.1,83.5 131.7,85.5 135.4,87.4 139.1,89.4 142.8,91.3 146.5,92.8 150.2,94.6 153.9,96.4 157.6,98.2 161.2,100.0 164.9,101.8 168.6,103.9 172.3,105.7 176.0,107.5 179.7,109.2 183.4,111.0 187.0,112.7 190.7,114.5 194.4,116.2 198.1,117.9 201.8,119.3 205.5,121.0 209.2,122.8 212.9,124.5 216.5,126.1 220.2,127.7 223.9,129.4 227.6,130.8 231.3,132.2 235.0,134.1 238.7,135.8 242.4,137.4 246.0,139.0 249.7,140.6 253.4,142.2 257.1,143.9 260.8,145.5 264.5,147.1 268.2,148.7 271.9,150.3 275.5,151.9 279.2,153.6 282.9,155.2 286.6,156.8 290.3,158.4 294.0,160.0 297.7,161.7 301.3,163.3 305.0,165.0 308.7,166.7 312.4,168.4 316.1,170.1 319.8,171.8 323.5,173.4 327.2,175.1 330.8,176.8 334.5,178.5 338.2,180.2 341.9,181.9 345.6,183.6 349.3,185.4 353.0,187.1 356.7,188.7 360.3,190.4 364.0,192.0 367.7,193.6 371.4,195.2 375.1,196.6 378.8,198.3 382.5,199.9 386.1,201.8 389.8,203.6 393.5,205.3 397.2,206.9 400.9,208.5 404.6,210.2 408.3,211.9 412.0,213.6 415.6,215.2 419.3,216.9 423.0,218.7 426.7,220.4 430.4,222.2 434.1,223.9 437.8,225.7 441.5,227.4 445.1,229.2 448.8,230.6 452.5,231.8 456.2,233.2 459.9,234.9 463.6,236.6 467.3,238.3 471.0,240.0 474.6,241.7 478.3,243.3" fill="none" stroke="#8b5cf6" stroke-width="1.5" stroke-linejoin="round"/>
<polyline points="58.0,51.4 61.7,53.1 65.4,54.7 69.1,56.8 72.7,58.8 76.4,60.8 80.1,62.8 83.8,64.9 87.5,66.9 91.2,68.9 94.9,70.9 98.6,72.8 102.2,74.5 105.9,76.4 109.6,78.3 113.3,80.6 117.0,82.6 120.7,84.4 124.4,86.2 128.1,88.0 131.7,89.9 135.4,91.7 139.1,93.5 142.8,95.3 146.5,97.1 150.2,98.8 153.9,100.2 157.6,101.7 161.2,103.5 164.9,105.3 168.6,107.1 172.3,109.0 176.0,110.8 179.7,112.5 183.4,114.3 187.0,116.0 190.7,117.3 194.4,118.9 198.1,120.5 201.8,122.2 205.5,123.8 209.2,125.4 212.9,127.0 216.5,128.7 220.2,130.4 223.9,132.1 227.6,133.7 231.3,135.4 235.0,137.1 238.7,138.8 242.4,140.5 246.0,142.2 249.7,143.9 253.4,145.5 257.1,147.1 260.8,148.7 264.5,150.3 268.2,151.9 271.9,153.6 275.5,155.3 279.2,157.0 282.9,158.5 286.6,160.2 290.3,162.1 294.0,163.9 297.7,165.8 301.3,167.6 305.0,169.3 308.7,171.1 312.4,172.8 316.1,174.5 319.8,176.1 323.5,177.8 327.2,179.5 330.8,181.1" fill="none" stroke="#ec4899" stroke-width="1.5" stroke-linejoin="round"/>
<line x1="66" x2="82" y1="50" y2="50" stroke="#3b82f6" stroke-width="2"/>
<text x="86" y="53" fill="#d1d5db" font-size="9">1S/1C/3R unknown</text>
<line x1="66" x2="82" y1="64" y2="64" stroke="#10b981" stroke-width="2"/>
<text x="86" y="67" fill="#d1d5db" font-size="9">1S/1C/3R map_known</text>
<line x1="66" x2="82" y1="78" y2="78" stroke="#f59e0b" stroke-width="2"/>
<text x="86" y="81" fill="#d1d5db" font-size="9">0S/0C/5R unknown</text>
<line x1="66" x2="82" y1="92" y2="92" stroke="#ef4444" stroke-width="2"/>
<text x="86" y="95" fill="#d1d5db" font-size="9">0S/0C/5R map_known</text>
<line x1="66" x2="82" y1="106" y2="106" stroke="#8b5cf6" stroke-width="2"/>
<text x="86" y="109" fill="#d1d5db" font-size="9">1S/1C/3R unknown  no-seek</text>
<line x1="66" x2="82" y1="120" y2="120" stroke="#ec4899" stroke-width="2"/>
<text x="86" y="123" fill="#d1d5db" font-size="9">1S/1C/3R map_known no-seek</text>
</svg>