<svg xmlns="http://www.w3.org/2000/svg" viewBox="0 0 620 320" width="620" height="320" style="background:#111318;border-radius:8px">
<text x="310.0" y="22" text-anchor="middle" fill="#e5e7eb" font-size="13" font-weight="700">Messages Sent vs Step  —  A</text>
<text x="14" y="154.0" text-anchor="middle" fill="#9ca3af" font-size="10" transform="rotate(-90,14,154.0)">Messages</text>
<text x="329.0" y="314" text-anchor="middle" fill="#9ca3af" font-size="10">Step</text>
<line x1="58" x2="600" y1="268.0" y2="268.0" stroke="#374151" stroke-width="0.5"/>
<text x="52" y="271.0" text-anchor="end" fill="#6b7280" font-size="9">3.3</text>
<line x1="58" x2="600" y1="211.0" y2="211.0" stroke="#374151" stroke-width="0.5"/>
<text x="52" y="214.0" text-anchor="end" fill="#6b7280" font-size="9">95.1</text>
<line x1="58" x2="600" y1="154.0" y2="154.0" stroke="#374151" stroke-width="0.5"/>
<text x="52" y="157.0" text-anchor="end" fill="#6b7280" font-size="9">187</text>
<line x1="58" x2="600" y1="97.0" y2="97.0" stroke="#374151" stroke-width="0.5"/>
<text x="52" y="100.0" text-anchor="end" fill="#6b7280" font-size="9">278.8</text>
<line x1="58" x2="600" y1="40.0" y2="40.0" stroke="#374151" stroke-width="0.5"/>
<text x="52" y="43.0" text-anchor="end" fill="#6b7280" font-size="9">370.7</text>
<line x1="58.0" x2="58.0" y1="40" y2="268" stroke="#374151" stroke-width="0.5"/>
<text x="58.0" y="282" text-anchor="middle" fill="#6b7280" font-size="9">1</text>
<line x1="194.4" x2="194.4" y1="40" y2="268" stroke="#374151" stroke-width="0.5"/>
<text x="194.4" y="282" text-anchor="middle" fill="#6b7280" font-size="9">38</text>
<line x1="327.2" x2="327.2" y1="40" y2="268" stroke="#374151" stroke-width="0.5"/>
<text x="327.2" y="282" text-anchor="middle" fill="#6b7280" font-size="9">74</text>
<line x1="463.6" x2="463.6" y1="40" y2="268" stroke="#374151" stroke-width="0.5"/>
<text x="463.6" y="282" text-anchor="middle" fill="#6b7280" font-size="9">111</text>
<line x1="600.0" x2="600.0" y1="40" y2="268" stroke="#374151" stroke-width="0.5"/>
<text x="600.0" y="282" text-anchor="middle" fill="#6b7280" font-size="9">148</text>
<line x1="58" x2="58" y1="40" y2="268" stroke="#4b5563" stroke-width="1"/>
<line x1="58" x2="600" y1="268" y2="268" stroke="#4b5563" stroke-width="1"/>
<polyline points="58.0,257.0 61.7,246.5 65.4,237.2 69.1,231.6 72.7,229.1 76.4,226.6 80.1,224.1 83.8,221.6 87.5,219.2 91.2,219.2 94.9,219.2 98.6,219.2 102.2,219.2 105.9,217.9 109.6,216.7 113.3,214.2 117.0,211.7 120.7,209.2 124.4,206.7 128.1,206.7 131.7,206.7 135.4,206.7 139.1,206.7 142.8,206.7 146.5,206.7 150.2,206.7 153.9,205.5 157.6,205.5 161.2,205.5 164.9,205.5 168.6,203.0 172.3,202.4 176.0,202.4 179.7,202.4 183.4,200.5 187.0,199.3 190.7,197.4 194.4,196.2 198.1,196.2 201.8,195.0 205.5,193.7 209.2,191.2 212.9,191.2 216.5,191.2 220.2,191.2 223.9,190.6 227.6,188.8 231.3,186.9 235.0,185.0 238.7,184.4 242.4,184.4 246.0,182.5 249.7,180.7 253.4,178.8 257.1,178.8 260.8,178.8 264.5,178.8 268.2,178.8 271.9,178.8 275.5,177.6 279.2,177.6 282.9,177.6 286.6,177.6 290.3,177.6 294.0,177.6 297.7,177.6 301.3,177.6 305.0,177.6 308.7,177.6 312.4,177.0 316.1,175.1 319.8,173.2 323.5,171.4 327.2,170.1 330.8,168.9 334.5,167.7 338.2,166.4 341.9,166.4 345.6,166.4 349.3,166.4 353.0,166.4 356.7,166.4 360.3,162.7 364.0,157.7 367.7,154.0 371.4,152.1 375.1,151.5 378.8,151.5 382.5,151.5 386.1,151.5 389.8,151.5 393.5,151.5 397.2,151.5 400.9,151.5 404.6,151.5 408.3,151.5 412.0,151.5 415.6,151.5 419.3,150.3 423.0,150.3 426.7,150.3 430.4,150.3 434.1,150.3 437.8,150.3 441.5,150.3 445.1,150.3 448.8,150.3 452.5,150.3 456.2,150.3 459.9,150.3 463.6,150.3 467.3,150.3 471.0,150.3 474.6,150.3 478.3,150.3 482.0,150.3 485.7,149.7 489.4,147.8 493.1,145.9 496.8,145.3 500.4,145.3 504.1,145.3 507.8,145.3 511.5,145.3 515.2,145.3" fill="none" stroke="#3b82f6" stroke-width="1.5" stroke-linejoin="round"/>
<polyline points="58.0,257.0 61.7,248.9 65.4,245.2 69.1,243.4 72.7,240.3 76.4,237.2 80.1,234.1 83.8,231.0 87.5,227.2 91.2,226.0 94.9,224.7 98.6,223.5 102.2,222.3 105.9,221.0 109.6,219.8 113.3,217.3 117.0,216.1 120.7,216.1 124.4,216.1 128.1,216.1 131.7,216.1 135.4,216.1 139.1,216.1 142.8,216.1 146.5,216.1 150.2,216.1 153.9,216.1 157.6,214.2 161.2,214.2 164.9,214.2 168.6,214.2 172.3,214.2 176.0,213.6 179.7,213.6 183.4,213.6 187.0,213.6 190.7,213.6 194.4,213.6 198.1,213.6 201.8,207.4 205.5,206.1 209.2,204.9 212.9,203.6 216.5,201.2 220.2,199.9 223.9,199.9 227.6,199.9 231.3,198.7 235.0,198.7 238.7,198.7 242.4,198.7 246.0,198.7 249.7,198.7 253.4,198.7 257.1,198.7 260.8,198.7 264.5,198.7 268.2,198.7 271.9,198.7 275.5,196.8 279.2,195.0 282.9,193.1 286.6,191.2 290.3,189.4 294.0,187.5 297.7,187.5 301.3,187.5 305.0,186.3 308.7,186.3 312.4,186.3" fill="none" stroke="#10b981" stroke-width="1.5" stroke-linejoin="round"/>
<polyline points="58.0,257.6 61.7,247.7 65.4,240.3 69.1,232.8 72.7,229.1 76.4,225.4 80.1,222.9 83.8,219.8 87.5,216.7 91.2,214.2 94.9,211.7 98.6,209.2 102.2,206.7 105.9,204.3 109.6,199.3 113.3,195.6 117.0,191.9 120.7,189.4 124.4,188.1 128.1,185.6 131.7,184.4 135.4,183.2 139.1,178.8 142.8,176.3 146.5,175.1 150.2,173.9 153.9,171.4 157.6,168.9 161.2,166.4 164.9,162.7 168.6,159.0 172.3,155.2 176.0,150.3 179.7,145.3 183.4,141.6 187.0,137.9 190.7,134.1 194.4,130.4 198.1,129.2 201.8,127.9 205.5,126.7 209.2,125.5 212.9,124.2 216.5,124.2 220.2,124.2 223.9,124.2 227.6,124.2 231.3,123.0 235.0,121.7 238.7,120.5 242.4,120.5 246.0,120.5 249.7,120.5 253.4,119.2 257.1,118.0 260.8,115.5 264.5,113.0 268.2,111.8 271.9,111.8 275.5,110.6 279.2,110.6 282.9,110.6 286.6,110.6 290.3,110.6 294.0,110.6 297.7,110.6 301.3,110.6 305.0,110.6 308.7,109.3 312.4,106.8 316.1,104.4 319.8,101.9 323.5,100.6 327.2,100.6 330.8,99.4 334.5,99.4 338.2,99.4 341.9,99.4 345.6,99.4 349.3,99.4 353.0,98.1 356.7,96.9 360.3,94.4 364.0,91.9 367.7,90.7 371.4,89.5 375.1,89.5 378.8,88.2 382.5,87.0 386.1,85.7 389.8,85.7 393.5,84.5 397.2,84.5 400.9,84.5 404.6,83.3 408.3,82.0 412.0,82.0 415.6,82.0 419.3,82.0 423.0,82.0 426.7,82.0 430.4,82.0 434.1,82.0 437.8,82.0 441.5,82.0 445.1,79.5 448.8,77.0 452.5,73.3 456.2,72.1 459.9,70.8 463.6,69.6 467.3,68.4 471.0,68.4 474.6,68.4 478.3,68.4 482.0,68.4 485.7,68.4 489.4,68.4 493.1,68.4 496.8,68.4 500.4,68.4 504.1,68.4 507.8,68.4 511.5,67.1 515.2,65.9 518.9,65.9 522.6,65.9 526.3,65.9 529.9,65.9 533.6,65.9 537.3,65.9 541.0,64.6 544.7,63.4 548.4,62.2 552.1,60.3 555.8,59.1 559.4,59.1 563.1,59.1 566.8,59.1 570.5,57.8 574.2,57.8 577.9,56.6 581.6,55.3 585.3,54.1 588.9,52.8 592.6,52.8 596.3,51.6 600.0,50.4" fill="none" stroke="#f59e0b" stroke-width="1.5" stroke-linejoin="round"/>
<polyline points="58.0,257.6 61.7,247.7 65.4,240.3 69.1,232.8 72.7,225.4 76.4,221.6 80.1,217.9 83.8,213.6 87.5,209.9 91.2,205.5 94.9,201.8 98.6,198.1 102.2,193.1 105.9,188.1 109.6,183.2 113.3,178.8 117.0,175.1 120.7,171.4 124.4,166.4 128.1,161.4 131.7,156.5 135.4,150.9 139.1,144.7 142.8,138.5 146.5,133.5 150.2,129.8 153.9,126.1 157.6,124.8 161.2,121.1 164.9,119.9 168.6,118.6 172.3,118.6 176.0,118.6 179.7,118.6 183.4,118.0 187.0,118.0 190.7,118.0 194.4,118.0 198.1,118.0 201.8,116.8 205.5,115.5 209.2,114.3 212.9,113.0 216.5,113.0 220.2,113.0 223.9,113.0 227.6,111.8 231.3,111.8 235.0,111.8 238.7,111.8 242.4,110.6 246.0,109.3 249.7,108.1 253.4,106.8 257.1,105.6 260.8,105.6 264.5,103.1 268.2,101.9 271.9,99.4 275.5,95.0 279.2,91.3 282.9,88.8 286.6,86.4 290.3,82.6 294.0,81.4 297.7,80.2 301.3,80.2 305.0,80.2 308.7,80.2 312.4,80.2 316.1,80.2 319.8,80.2 323.5,80.2 327.2,78.9 330.8,76.4 334.5,73.9 338.2,71.5 341.9,70.2 345.6,67.7 349.3,66.5 353.0,66.5 356.7,66.5" fill="none" stroke="#ef4444" stroke-width="1.5" stroke-linejoin="round"/>
<polyline points="58.0,257.0 61.7,246.5 65.4,237.2 69.1,231.6 72.7,229.1 76.4,226.6 80.1,224.1 83.8,221.6 87.5,219.2 91.2,219.2 94.9,219.2 98.6,219.2 102.2,219.2 105.9,217.9 109.6,216.7 113.3,214.2 117.0,211.7 120.7,209.2 124.4,206.7 128.1,206.7 131.7,206.7 135.4,206.7 139.1,206.7 142.8,206.7 146.5,206.7 150.2,206.7 153.9,206.7 157.6,206.7 161.2,206.7 164.9,206.7 168.6,206.1 172.3,205.5 176.0,205.5 179.7,205.5 183.4,205.5 187.0,205.5 190.7,205.5 194.4,205.5 198.1,205.5 201.8,205.5 205.5,205.5 209.2,205.5 212.9,205.5 216.5,205.5 220.2,205.5 223.9,204.9 227.6,203.0 231.3,201.2 235.0,199.3 238.7,197.4 242.4,197.4 246.0,197.4 249.7,197.4 253.4,197.4 257.1,197.4 260.8,197.4 264.5,196.2 268.2,196.2 271.9,196.2 275.5,196.2 279.2,196.2 282.9,196.2 286.6,196.2 290.3,196.2 294.0,196.2 297.7,196.2 301.3,196.2 305.0,196.2 308.7,196.2 312.4,196.2 316.1,196.2 319.8,196.2 323.5,196.2 327.2,196.2 330.8,195.6 334.5,193.7 338.2,193.1 341.9,192.5 345.6,192.5 349.3,192.5 353.0,192.5 356.7,192.5 360.3,192.5 364.0,192.5 367.7,192.5 371.4,190.6 375.1,188.8 378.8,186.9 382.5,184.4 386.1,180.7 389.8,178.2 393.5,176.3 397.2,176.3 400.9,176.3 404.6,176.3 408.3,176.3 412.0,176.3 415.6,175.1 419.3,173.9 423.0,172.6 426.7,172.6 430.4,172.6 434.1,172.6 437.8,172.6 441.5,172.6 445.1,171.4 448.8,169.5 452.5,166.4 456.2,164.5 459.9,163.9 463.6,163.3 467.3,162.7 471.0,162.1 474.6,161.4 478.3,161.4" fill="none" stroke="#8b5cf6" stroke-width="1.5" stroke-linejoin="round"/>
<polyline points="58.0,257.0 61.7,248.9 65.4,245.2 69.1,243.4 72.7,240.3 76.4,237.2 80.1,234.1 83.8,231.0 87.5,227.2 91.2,226.0 94.9,224.7 98.6,223.5 102.2,222.3 105.9,221.0 109.6,219.8 113.3,217.3 117.0,216.1 120.7,216.1 124.4,216.1 128.1,216.1 131.7,216.1 135.4,216.1 139.1,216.1 142.8,216.1 146.5,216.1 150.2,216.1 153.9,216.1 157.6,216.1 161.2,216.1 164.9,216.1 168.6,216.1 172.3,216.1 176.0,214.2 179.7,214.2 183.4,214.2 187.0,213.6 190.7,208.0 194.4,208.0 198.1,208.0 201.8,208.0 205.5,208.0 209.2,208.0 212.9,207.4 216.5,207.4 220.2,207.4 223.9,207.4 227.6,207.4 231.3,207.4 235.0,207.4 238.7,207.4 242.4,206.1 246.0,206.1 249.7,206.1 253.4,206.1 257.1,206.1 260.8,204.9 264.5,203.6 268.2,203.6 271.9,203.6 275.5,203.6 279.2,203.6 282.9,203.6 286.6,203.6 290.3,202.4 294.0,201.2 297.7,199.3 301.3,197.4 305.0,196.8 308.7,196.8 312.4,196.8 316.1,196.8 319.8,196.8 323.5,196.8 327.2,196.8 330.8,196.8" fill="none" stroke="#ec4899" stroke-width="1.5" stroke-linejoin="round"/>
<line x1="66" x2="82" y1="50" y2="50" stroke="#3b82f6" stroke-width="2"/>
<text x="86" y="53" fill="#d1d5db" font-size="9">1S/1C/3R unknown</text>
<line x1="66" x2="82" y1="64" y2="64" stroke="#10b981" stroke-width="2"/>
<text x="86" y="67" fill="#d1d5db" font-size="9">1S/1C/3R map_known</text>
<line x1="66" x2="82" y1="78" y2="78" stroke="#f59e0b" stroke-width="2"/>
<text x="86" y="81" fill="#d1d5db" font-size="9">0S/0C/5R unknown</text>
<line x1="66" x2="82" y1="92" y2="92" stroke="#ef4444" stroke-width="2"/>
<text x="86" y="95" fill="#d1d5db" font-size="9">0S/0C/5R map_known</text>
<line x1="66" x2="82" y1="106" y2="106" stroke="#8b5cf6" stroke-width="2"/>
<text x="86" y="109" fill="#d1d5db" font-size="9">1S/1C/3R unknown  no-seek</text>
<line x1="66" x2="82" y1="120" y2="120" stroke="#ec4899" stroke-width="2"/>
<text x="86" y="123" fill="#d1d5db" font-size="9">1S/1C/3R map_known no-seek</text>
</svg>