<svg xmlns="http://www.w3.org/2000/svg" viewBox="0 0 620 320" width="620" height="320" style="background:#111318;border-radius:8px">
<text x="310.0" y="22" text-anchor="middle" fill="#e5e7eb" font-size="13" font-weight="700">Objects Retrieved vs Step  —  A</text>
<text x="14" y="154.0" text-anchor="middle" fill="#9ca3af" font-size="10" transform="rotate(-90,14,154.0)">Objects Retrieved</text>
<text x="329.0" y="314" text-anchor="middle" fill="#9ca3af" font-size="10">Step</text>
<line x1="58" x2="600" y1="268.0" y2="268.0" stroke="#374151" stroke-width="0.5"/>
<text x="52" y="271.0" text-anchor="end" fill="#6b7280" font-size="9">0</text>
<line x1="58" x2="600" y1="211.0" y2="211.0" stroke="#374151" stroke-width="0.5"/>
<text x="52" y="214.0" text-anchor="end" fill="#6b7280" font-size="9">2.6</text>
<line x1="58" x2="600" y1="154.0" y2="154.0" stroke="#374151" stroke-width="0.5"/>
<text x="52" y="157.0" text-anchor="end" fill="#6b7280" font-size="9">5.2</text>
<line x1="58" x2="600" y1="97.0" y2="97.0" stroke="#374151" stroke-width="0.5"/>
<text x="52" y="100.0" text-anchor="end" fill="#6b7280" font-size="9">7.9</text>
<line x1="58" x2="600" y1="40.0" y2="40.0" stroke="#374151" stroke-width="0.5"/>
<text x="52" y="43.0" text-anchor="end" fill="#6b7280" font-size="9">10.5</text>
<line x1="58.0" x2="58.0" y1="40" y2="268" stroke="#374151" stroke-width="0.5"/>
<text x="58.0" y="282" text-anchor="middle" fill="#6b7280" font-size="9">1</text>
<line x1="194.4" x2="194.4" y1="40" y2="268" stroke="#374151" stroke-width="0.5"/>
<text x="194.4" y="282" text-anchor="middle" fill="#6b7280" font-size="9">38</text>
<line x1="327.2" x2="327.2" y1="40" y2="268" stroke="#374151" stroke-width="0.5"/>
<text x="327.2" y="282" text-anchor="middle" fill="#6b7280" font-size="9">74</text>
<line x1="463.6" x2="463.6" y1="40" y2="268" stroke="#374151" stroke-width="0.5"/>
<text x="463.6" y="282" text-anchor="middle" fill="#6b7280" font-size="9">111</text>
<line x1="600.0" x2="600.0" y1="40" y2="268" stroke="#374151" stroke-width="0.5"/>
<text x="600.0" y="282" text-anchor="middle" fill="#6b7280" font-size="9">148</text>
<line x1="58" x2="58" y1="40" y2="268" stroke="#4b5563" stroke-width="1"/>
<line x1="58" x2="600" y1="268" y2="268" stroke="#4b5563" stroke-width="1"/>
<polyline points="58.0,268.0 61.7,268.0 65.4,268.0 69.1,268.0 72.7,268.0 76.4,268.0 80.1,268.0 83.8,268.0 87.5,268.0 91.2,268.0 94.9,268.0 98.6,268.0 102.2,268.0 105.9,268.0 109.6,268.0 113.3,268.0 117.0,268.0 120.7,268.0 124.4,268.0 128.1,268.0 131.7,268.0 135.4,268.0 139.1,268.0 142.8,268.0 146.5,224.6 150.2,224.6 153.9,224.6 157.6,224.6 161.2,224.6 164.9,224.6 168.6,224.6 172.3,224.6 176.0,202.9 179.7,202.9 183.4,202.9 187.0,202.9 190.7,202.9 194.4,202.9 198.1,181.1 201.8,181.1 205.5,181.1 209.2,159.4 212.9,159.4 216.5,159.4 220.2,159.4 223.9,159.4 227.6,159.4 231.3,159.4 235.0,159.4 238.7,159.4 242.4,159.4 246.0,159.4 249.7,159.4 253.4,159.4 257.1,159.4 260.8,159.4 264.5,159.4 268.2,159.4 271.9,159.4 275.5,159.4 279.2,159.4 282.9,159.4 286.6,159.4 290.3,159.4 294.0,159.4 297.7,159.4 301.3,159.4 305.0,159.4 308.7,116.0 312.4,116.0 316.1,116.0 319.8,116.0 323.5,116.0 327.2,116.0 330.8,116.0 334.5,116.0 338.2,116.0 341.9,116.0 345.6,72.6 349.3,72.6 353.0,72.6 356.7,72.6 360.3,72.6 364.0,72.6 367.7,72.6 371.4,72.6 375.1,72.6 378.8,72.6 382.5,72.6 386.1,72.6 389.8,72.6 393.5,72.6 397.2,72.6 400.9,72.6 404.6,72.6 408.3,72.6 412.0,72.6 415.6,72.6 419.3,72.6 423.0,72.6 426.7,72.6 430.4,72.6 434.1,72.6 437.8,72.6 441.5,72.6 445.1,72.6 448.8,72.6 452.5,72.6 456.2,72.6 459.9,72.6 463.6,72.6 467.3,72.6 471.0,72.6 474.6,72.6 478.3,72.6 482.0,72.6 485.7,72.6 489.4,72.6 493.1,72.6 496.8,72.6 500.4,72.6 504.1,72.6 507.8,72.6 511.5,72.6 515.2,50.9" fill="none" stroke="#3b82f6" stroke-width="1.5" stroke-linejoin="round"/>
<polyline points="58.0,268.0 61.7,268.0 65.4,268.0 69.1,268.0 72.7,268.0 76.4,268.0 80.1,268.0 83.8,268.0 87.5,268.0 91.2,268.0 94.9,268.0 98.6,268.0 102.2,268.0 105.9,268.0 109.6,268.0 113.3,268.0 117.0,268.0 120.7,246.3 124.4,246.3 128.1,246.3 131.7,246.3 135.4,246.3 139.1,246.3 142.8,246.3 146.5,246.3 150.2,202.9 153.9,202.9 157.6,202.9 161.2,202.9 164.9,202.9 168.6,202.9 172.3,202.9 176.0,159.4 179.7,159.4 183.4,159.4 187.0,159.4 190.7,116.0 194.4,116.0 198.1,116.0 201.8,116.0 205.5,116.0 209.2,116.0 212.9,116.0 216.5,116.0 220.2,116.0 223.9,116.0 227.6,116.0 231.3,116.0 235.0,116.0 238.7,94.3 242.4,94.3 246.0,94.3 249.7,94.3 253.4,94.3 257.1,94.3 260.8,94.3 264.5,94.3 268.2,94.3 271.9,94.3 275.5,94.3 279.2,94.3 282.9,94.3 286.6,94.3 290.3,94.3 294.0,94.3 297.7,94.3 301.3,94.3 305.0,94.3 308.7,72.6 312.4,50.9" fill="none" stroke="#10b981" stroke-width="1.5" stroke-linejoin="round"/>
<polyline points="58.0,268.0 61.7,268.0 65.4,268.0 69.1,268.0 72.7,268.0 76.4,268.0 80.1,268.0 83.8,268.0 87.5,268.0 91.2,268.0 94.9,268.0 98.6,268.0 102.2,268.0 105.9,268.0 109.6,246.3 113.3,246.3 117.0,246.3 120.7,246.3 124.4,246.3 128.1,246.3 131.7,246.3 135.4,246.3 139.1,246.3 142.8,246.3 146.5,246.3 150.2,246.3 153.9,246.3 157.6,246.3 161.2,246.3 164.9,246.3 168.6,202.9 172.3,181.1 176.0,181.1 179.7,181.1 183.4,181.1 187.0,159.4 190.7,159.4 194.4,159.4 198.1,159.4 201.8,159.4 205.5,159.4 209.2,159.4 212.9,159.4 216.5,159.4 220.2,159.4 223.9,159.4 227.6,159.4 231.3,137.7 235.0,137.7 238.7,137.7 242.4,137.7 246.0,137.7 249.7,137.7 253.4,137.7 257.1,137.7 260.8,137.7 264.5,137.7 268.2,137.7 271.9,137.7 275.5,137.7 279.2,137.7 282.9,137.7 286.6,137.7 290.3,137.7 294.0,137.7 297.7,137.7 301.3,116.0 305.0,116.0 308.7,116.0 312.4,116.0 316.1,116.0 319.8,116.0 323.5,116.0 327.2,116.0 330.8,116.0 334.5,116.0 338.2,116.0 341.9,116.0 345.6,116.0 349.3,116.0 353.0,116.0 356.7,116.0 360.3,116.0 364.0,116.0 367.7,116.0 371.4,116.0 375.1,116.0 378.8,116.0 382.5,116.0 386.1,94.3 389.8,94.3 393.5,94.3 397.2,94.3 400.9,94.3 404.6,94.3 408.3,94.3 412.0,94.3 415.6,94.3 419.3,94.3 423.0,94.3 426.7,72.6 430.4,72.6 434.1,72.6 437.8,72.6 441.5,72.6 445.1,72.6 448.8,72.6 452.5,72.6 456.2,72.6 459.9,72.6 463.6,72.6 467.3,72.6 471.0,72.6 474.6,72.6 478.3,72.6 482.0,72.6 485.7,72.6 489.4,72.6 493.1,72.6 496.8,72.6 500.4,72.6 504.1,72.6 507.8,72.6 511.5,72.6 515.2,72.6 518.9,72.6 522.6,72.6 526.3,72.6 529.9,72.6 533.6,72.6 537.3,72.6 541.0,72.6 544.7,72.6 548.4,72.6 552.1,72.6 555.8,72.6 559.4,72.6 563.1,72.6 566.8,72.6 570.5,72.6 574.2,72.6 577.9,72.6 581.6,72.6 585.3,72.6 588.9,72.6 592.6,72.6 596.3,72.6 600.0,50.9" fill="none" stroke="#f59e0b" stroke-width="1.5" stroke-linejoin="round"/>
<polyline points="58.0,268.0 61.7,268.0 65.4,268.0 69.1,268.0 72.7,268.0 76.4,268.0 80.1,268.0 83.8,268.0 87.5,268.0 91.2,268.0 94.9,268.0 98.6,268.0 102.2,268.0 105.9,268.0 109.6,268.0 113.3,268.0 117.0,246.3 120.7,246.3 124.4,246.3 128.1,246.3 131.7,246.3 135.4,246.3 139.1,246.3 142.8,246.3 146.5,246.3 150.2,246.3 153.9,246.3 157.6,246.3 161.2,246.3 164.9,246.3 168.6,246.3 172.3,246.3 176.0,246.3 179.7,246.3 183.4,246.3 187.0,246.3 190.7,246.3 194.4,224.6 198.1,224.6 201.8,224.6 205.5,181.1 209.2,137.7 212.9,137.7 216.5,137.7 220.2,116.0 223.9,94.3 227.6,94.3 231.3,94.3 235.0,94.3 238.7,94.3 242.4,94.3 246.0,94.3 249.7,94.3 253.4,94.3 257.1,94.3 260.8,94.3 264.5,94.3 268.2,94.3 271.9,94.3 275.5,94.3 279.2,94.3 282.9,94.3 286.6,94.3 290.3,94.3 294.0,94.3 297.7,94.3 301.3,94.3 305.0,94.3 308.7,72.6 312.4,72.6 316.1,72.6 319.8,72.6 323.5,72.6 327.2,72.6 330.8,72.6 334.5,72.6 338.2,72.6 341.9,72.6 345.6,72.6 349.3,72.6 353.0,72.6 356.7,50.9" fill="none" stroke="#ef4444" stroke-width="1.5" stroke-linejoin="round"/>
<polyline points="58.0,268.0 61.7,268.0 65.4,268.0 69.1,268.0 72.7,268.0 76.4,268.0 80.1,268.0 83.8,268.0 87.5,268.0 91.2,268.0 94.9,268.0 98.6,268.0 102.2,268.0 105.9,268.0 109.6,268.0 113.3,268.0 117.0,268.0 120.7,268.0 124.4,268.0 128.1,268.0 131.7,268.0 135.4,268.0 139.1,268.0 142.8,268.0 146.5,224.6 150.2,224.6 153.9,224.6 157.6,224.6 161.2,224.6 164.9,224.6 168.6,224.6 172.3,224.6 176.0,202.9 179.7,202.9 183.4,202.9 187.0,202.9 190.7,202.9 194.4,202.9 198.1,181.1 201.8,181.1 205.5,181.1 209.2,181.1 212.9,181.1 216.5,137.7 220.2,137.7 223.9,137.7 227.6,137.7 231.3,137.7 235.0,137.7 238.7,137.7 242.4,137.7 246.0,137.7 249.7,137.7 253.4,137.7 257.1,137.7 260.8,137.7 264.5,137.7 268.2,137.7 271.9,137.7 275.5,137.7 279.2,137.7 282.9,137.7 286.6,137.7 290.3,137.7 294.0,137.7 297.7,137.7 301.3,137.7 305.0,137.7 308.7,137.7 312.4,137.7 316.1,137.7 319.8,137.7 323.5,137.7 327.2,137.7 330.8,137.7 334.5,137.7 338.2,137.7 341.9,137.7 345.6,137.7 349.3,137.7 353.0,137.7 356.7,94.3 360.3,94.3 364.0,94.3 367.7,94.3 371.4,94.3 375.1,94.3 378.8,94.3 382.5,94.3 386.1,94.3 389.8,94.3 393.5,94.3 397.2,94.3 400.9,94.3 404.6,94.3 408.3,94.3 412.0,94.3 415.6,94.3 419.3,94.3 423.0,94.3 426.7,94.3 430.4,94.3 434.1,94.3 437.8,94.3 441.5,94.3 445.1,94.3 448.8,94.3 452.5,94.3 456.2,94.3 459.9,72.6 463.6,72.6 467.3,72.6 471.0,72.6 474.6,72.6 478.3,50.9" fill="none" stroke="#8b5cf6" stroke-width="1.5" stroke-linejoin="round"/>
<polyline points="58.0,268.0 61.7,268.0 65.4,268.0 69.1,268.0 72.7,268.0 76.4,268.0 80.1,268.0 83.8,268.0 87.5,268.0 91.2,268.0 94.9,268.0 98.6,268.0 102.2,268.0 105.9,268.0 109.6,268.0 113.3,268.0 117.0,268.0 120.7,246.3 124.4,246.3 128.1,246.3 131.7,246.3 135.4,246.3 139.1,246.3 142.8,246.3 146.5,246.3 150.2,202.9 153.9,202.9 157.6,202.9 161.2,202.9 164.9,202.9 168.6,202.9 172.3,202.9 176.0,159.4 179.7,159.4 183.4,159.4 187.0,159.4 190.7,116.0 194.4,116.0 198.1,116.0 201.8,116.0 205.5,116.0 209.2,116.0 212.9,116.0 216.5,116.0 220.2,116.0 223.9,116.0 227.6,116.0 231.3,116.0 235.0,116.0 238.7,116.0 242.4,116.0 246.0,116.0 249.7,116.0 253.4,94.3 257.1,94.3 260.8,94.3 264.5,94.3 268.2,94.3 271.9,94.3 275.5,94.3 279.2,94.3 282.9,94.3 286.6,94.3 290.3,94.3 294.0,94.3 297.7,94.3 301.3,94.3 305.0,94.3 308.7,94.3 312.4,72.6 316.1,72.6 319.8,72.6 323.5,72.6 327.2,72.6 330.8,50.9" fill="none" stroke="#ec4899" stroke-width="1.5" stroke-linejoin="round"/>
<line x1="66" x2="82" y1="50" y2="50" stroke="#3b82f6" stroke-width="2"/>
<text x="86" y="53" fill="#d1d5db" font-size="9">1S/1C/3R unknown</text>
<line x1="66" x2="82" y1="64" y2="64" stroke="#10b981" stroke-width="2"/>
<text x="86" y="67" fill="#d1d5db" font-size="9">1S/1C/3R map_known</text>
<line x1="66" x2="82" y1="78" y2="78" stroke="#f59e0b" stroke-width="2"/>
<text x="86" y="81" fill="#d1d5db" font-size="9">0S/0C/5R unknown</text>
<line x1="66" x2="82" y1="92" y2="92" stroke="#ef4444" stroke-width="2"/>
<text x="86" y="95" fill="#d1d5db" font-size="9">0S/0C/5R map_known</text>
<line x1="66" x2="82" y1="106" y2="106" stroke="#8b5cf6" stroke-width="2"/>
<text x="86" y="109" fill="#d1d5db" font-size="9">1S/1C/3R unknown  no-seek</text>
<line x1="66" x2="82" y1="120" y2="120" stroke="#ec4899" stroke-width="2"/>
<text x="86" y="123" fill="#d1d5db" font-size="9">1S/1C/3R map_known no-seek</text>
</svg>