<svg xmlns="http://www.w3.org/2000/svg" viewBox="0 0 620 320" width="620" height="320" style="background:#111318;border-radius:8px">
<text x="310.0" y="22" text-anchor="middle" fill="#e5e7eb" font-size="13" font-weight="700">Total Steps Comparison  —  A</text>
<text x="14" y="140.0" text-anchor="middle" fill="#9ca3af" font-size="10" transform="rotate(-90,14,140.0)">Steps</text>
<line x1="58" x2="600" y1="240.0" y2="240.0" stroke="#374151" stroke-width="0.5"/>
<text x="52" y="243.0" text-anchor="end" fill="#6b7280" font-size="9">0</text>
<line x1="58" x2="600" y1="190.0" y2="190.0" stroke="#374151" stroke-width="0.5"/>
<text x="52" y="193.0" text-anchor="end" fill="#6b7280" font-size="9">40</text>
<line x1="58" x2="600" y1="140.0" y2="140.0" stroke="#374151" stroke-width="0.5"/>
<text x="52" y="143.0" text-anchor="end" fill="#6b7280" font-size="9">81</text>
<line x1="58" x2="600" y1="90.0" y2="90.0" stroke="#374151" stroke-width="0.5"/>
<text x="52" y="93.0" text-anchor="end" fill="#6b7280" font-size="9">122</text>
<line x1="58" x2="600" y1="40.0" y2="40.0" stroke="#374151" stroke-width="0.5"/>
<text x="52" y="43.0" text-anchor="end" fill="#6b7280" font-size="9">162</text>
<line x1="58" x2="58" y1="40" y2="240" stroke="#4b5563" stroke-width="1"/>
<line x1="58" x2="600" y1="240" y2="240" stroke="#4b5563" stroke-width="1"/>
<rect x="66.0" y="86.4" width="81.0" height="153.6" fill="#3b82f6" rx="3"/>
<text x="106.5" y="82.4" text-anchor="middle" fill="#d1d5db" font-size="10" font-weight="600">125</text>
<text x="106.5" y="252" text-anchor="end" fill="#6b7280" font-size="8" transform="rotate(-35,106.5,252)">1S/1C/3R unknown</text>
<rect x="155.0" y="154.0" width="81.0" height="86.0" fill="#10b981" rx="3"/>
<text x="195.5" y="150.0" text-anchor="middle" fill="#d1d5db" font-size="10" font-weight="600">70</text>
<text x="195.5" y="252" text-anchor="end" fill="#6b7280" font-size="8" transform="rotate(-35,195.5,252)">1S/1C/3R map_known</text>
<rect x="244.0" y="58.2" width="81.0" height="181.8" fill="#f59e0b" rx="3"/>
<text x="284.5" y="54.2" text-anchor="middle" fill="#d1d5db" font-size="10" font-weight="600">148</text>
<text x="284.5" y="252" text-anchor="end" fill="#6b7280" font-size="8" transform="rotate(-35,284.5,252)">0S/0C/5R unknown</text>
<rect x="333.0" y="139.3" width="81.0" height="100.7" fill="#ef4444" rx="3"/>
<text x="373.5" y="135.3" text-anchor="middle" fill="#d1d5db" font-size="10" font-weight="600">82</text>
<text x="373.5" y="252" text-anchor="end" fill="#6b7280" font-size="8" transform="rotate(-35,373.5,252)">0S/0C/5R map_known</text>
<rect x="422.0" y="98.7" width="81.0" height="141.3" fill="#8b5cf6" rx="3"/>
<text x="462.5" y="94.7" text-anchor="middle" fill="#d1d5db" font-size="10" font-weight="600">115</text>
<text x="462.5" y="252" text-anchor="end" fill="#6b7280" font-size="8" transform="rotate(-35,462.5,252)">1S/1C/3R unknown  no-seek</text>
<rect x="511.0" y="147.9" width="81.0" height="92.1" fill="#ec4899" rx="3"/>
<text x="551.5" y="143.9" text-anchor="middle" fill="#d1d5db" font-size="10" font-weight="600">75</text>
<text x="551.5" y="252" text-anchor="end" fill="#6b7280" font-size="8" transform="rotate(-35,551.5,252)">1S/1C/3R map_known no-seek</text>
</svg>